<?xml version="1.0" encoding="UTF-8" standalone="no"?>
<!-- Created with Inkscape (http://www.inkscape.org/) -->

<svg
   width="50.26173mm"
   height="37.661236mm"
   viewBox="0 0 50.26173 37.661236"
   version="1.1"
   id="svg1"
   xml:space="preserve"
   inkscape:version="1.3.2 (091e20e, 2023-11-25, custom)"
   sodipodi:docname="Ideen.svg"
   xmlns:inkscape="http://www.inkscape.org/namespaces/inkscape"
   xmlns:sodipodi="http://sodipodi.sourceforge.net/DTD/sodipodi-0.dtd"
   xmlns="http://www.w3.org/2000/svg"
   xmlns:svg="http://www.w3.org/2000/svg"><sodipodi:namedview
     id="namedview1"
     pagecolor="#ffffff"
     bordercolor="#000000"
     borderopacity="0.25"
     inkscape:showpageshadow="2"
     inkscape:pageopacity="0.0"
     inkscape:pagecheckerboard="0"
     inkscape:deskcolor="#d1d1d1"
     inkscape:document-units="mm"
     inkscape:zoom="4.6879996"
     inkscape:cx="64.526456"
     inkscape:cy="-168.62203"
     inkscape:window-width="1920"
     inkscape:window-height="1129"
     inkscape:window-x="1192"
     inkscape:window-y="340"
     inkscape:window-maximized="1"
     inkscape:current-layer="g6" /><defs
     id="defs1"><style
       id="style1">
      .cls-1 {
        fill: #1973b7;
      }

      .cls-1, .cls-2, .cls-3, .cls-4, .cls-5, .cls-6, .cls-7, .cls-8, .cls-9, .cls-10, .cls-11, .cls-12, .cls-13, .cls-14, .cls-15, .cls-16, .cls-17, .cls-18 {
        stroke-width: 0px;
      }

      .cls-2 {
        fill: #3c3c3b;
      }

      .cls-3 {
        fill: #ffda2a;
      }

      .cls-4 {
        fill: #5e2483;
      }

      .cls-5 {
        fill: #1b7495;
      }

      .cls-6 {
        fill: #7cb72b;
      }

      .cls-7 {
        fill: #bbd032;
      }

      .cls-8 {
        fill: #1e7141;
      }

      .cls-9 {
        fill: #308635;
      }

      .cls-10 {
        fill: #e0c218;
      }

      .cls-11 {
        fill: #e30613;
      }

      .cls-12 {
        fill: #dbdc1e;
      }

      .cls-13 {
        fill: #712281;
      }

      .cls-14 {
        fill: #eea814;
      }

      .cls-15 {
        fill: #3457a4;
      }

      .cls-16 {
        fill: #5ba532;
      }

      .cls-17 {
        fill: #ed6f17;
      }

      .cls-18 {
        fill: #90c033;
      }
    </style></defs><g
     inkscape:label="Ebene 1"
     inkscape:groupmode="layer"
     id="layer1"
     transform="translate(30.593066,131.79234)"><path
       id="rect209"
       style="fill:none;fill-opacity:1;stroke:#00ff00;stroke-width:0.261684;stroke-linecap:round;stroke-linejoin:round;stroke-dasharray:none;stroke-opacity:1"
       d="m -16.811894,-131.66018 a 2.5,2.5 0 0 0 -2.448946,1.72651 2.5,2.5 0 0 0 -0.118339,0.77256 h -11.083044 v 34.899163 H 19.537826 V -129.16111 H 8.6371989 a 2.5,2.5 0 0 0 -1.7079061,-2.06396 2.5,2.5 0 0 0 -3.1501953,1.60507 2.5,2.5 0 0 0 -0.097152,0.45889 h -6.6445557 a 2.5,2.5 0 0 0 -1.7270263,-2.37763 2.5,2.5 0 0 0 -3.1501953,1.60507 2.5,2.5 0 0 0 -0.1178223,0.77256 h -6.4259639 a 2.5,2.5 0 0 0 -1.727027,-2.37763 2.5,2.5 0 0 0 -0.701249,-0.12144 z" /></g></svg>
