%TF.GenerationSoftware,KiCad,Pcbnew,9.0.3*%
%TF.CreationDate,2026-01-09T12:55:18+01:00*%
%TF.ProjectId,Einhhorn,45696e68-686f-4726-9e2e-6b696361645f,1.0*%
%TF.SameCoordinates,Original*%
%TF.FileFunction,Copper,L1,Top*%
%TF.FilePolarity,Positive*%
%FSLAX46Y46*%
G04 Gerber Fmt 4.6, Leading zero omitted, Abs format (unit mm)*
G04 Created by KiCad (PCBNEW 9.0.3) date 2026-01-09 12:55:18*
%MOMM*%
%LPD*%
G01*
G04 APERTURE LIST*
G04 Aperture macros list*
%AMRoundRect*
0 Rectangle with rounded corners*
0 $1 Rounding radius*
0 $2 $3 $4 $5 $6 $7 $8 $9 X,Y pos of 4 corners*
0 Add a 4 corners polygon primitive as box body*
4,1,4,$2,$3,$4,$5,$6,$7,$8,$9,$2,$3,0*
0 Add four circle primitives for the rounded corners*
1,1,$1+$1,$2,$3*
1,1,$1+$1,$4,$5*
1,1,$1+$1,$6,$7*
1,1,$1+$1,$8,$9*
0 Add four rect primitives between the rounded corners*
20,1,$1+$1,$2,$3,$4,$5,0*
20,1,$1+$1,$4,$5,$6,$7,0*
20,1,$1+$1,$6,$7,$8,$9,0*
20,1,$1+$1,$8,$9,$2,$3,0*%
G04 Aperture macros list end*
%TA.AperFunction,ComponentPad*%
%ADD10R,1.800000X1.800000*%
%TD*%
%TA.AperFunction,ComponentPad*%
%ADD11C,1.800000*%
%TD*%
%TA.AperFunction,ComponentPad*%
%ADD12C,1.600000*%
%TD*%
%TA.AperFunction,ComponentPad*%
%ADD13RoundRect,0.250000X0.550000X0.550000X-0.550000X0.550000X-0.550000X-0.550000X0.550000X-0.550000X0*%
%TD*%
%TA.AperFunction,ComponentPad*%
%ADD14C,2.400000*%
%TD*%
%TA.AperFunction,ComponentPad*%
%ADD15RoundRect,0.250000X-0.950000X-0.950000X0.950000X-0.950000X0.950000X0.950000X-0.950000X0.950000X0*%
%TD*%
%TA.AperFunction,ComponentPad*%
%ADD16C,3.000000*%
%TD*%
%TA.AperFunction,ComponentPad*%
%ADD17RoundRect,0.250000X0.950000X-0.950000X0.950000X0.950000X-0.950000X0.950000X-0.950000X-0.950000X0*%
%TD*%
%TA.AperFunction,ComponentPad*%
%ADD18C,1.500000*%
%TD*%
%TA.AperFunction,ViaPad*%
%ADD19C,0.600000*%
%TD*%
%TA.AperFunction,Conductor*%
%ADD20C,0.200000*%
%TD*%
G04 APERTURE END LIST*
D10*
%TO.P,D4,1,K*%
%TO.N,Net-(BT1--)*%
X104006536Y-36800304D03*
D11*
%TO.P,D4,2,A*%
%TO.N,Net-(D4-A)*%
X104006536Y-34260304D03*
%TD*%
D10*
%TO.P,D2,1,K*%
%TO.N,Net-(BT1--)*%
X103847953Y-47026218D03*
D11*
%TO.P,D2,2,A*%
%TO.N,Net-(D2-A)*%
X103847953Y-49566218D03*
%TD*%
D10*
%TO.P,D7,1,K*%
%TO.N,Net-(BT1--)*%
X116058828Y-33866522D03*
D11*
%TO.P,D7,2,A*%
%TO.N,Net-(D7-A)*%
X118598828Y-33866522D03*
%TD*%
D10*
%TO.P,D8,1,K*%
%TO.N,Net-(BT1--)*%
X122243556Y-56940317D03*
D11*
%TO.P,D8,2,A*%
%TO.N,Net-(D8-A)*%
X124783556Y-56940317D03*
%TD*%
D10*
%TO.P,D3,1,K*%
%TO.N,Net-(BT1--)*%
X111615834Y-52103543D03*
D11*
%TO.P,D3,2,A*%
%TO.N,Net-(D3-A)*%
X114155834Y-52103543D03*
%TD*%
D10*
%TO.P,D1,1,K*%
%TO.N,Net-(BT1--)*%
X97000000Y-57416066D03*
D11*
%TO.P,D1,2,A*%
%TO.N,Net-(D1-A)*%
X97000000Y-54876066D03*
%TD*%
D10*
%TO.P,D6,1,K*%
%TO.N,Net-(BT1--)*%
X111618510Y-42192119D03*
D11*
%TO.P,D6,2,A*%
%TO.N,Net-(D6-A)*%
X114158510Y-42192119D03*
%TD*%
D10*
%TO.P,D5,1,K*%
%TO.N,Net-(BT1--)*%
X125653086Y-43540072D03*
D11*
%TO.P,D5,2,A*%
%TO.N,Net-(D5-A)*%
X128193086Y-43540072D03*
%TD*%
D12*
%TO.P,R2,1*%
%TO.N,Net-(U2-Q1)*%
X92600000Y-51060000D03*
%TO.P,R2,2*%
%TO.N,Net-(D2-A)*%
X92600000Y-40900000D03*
%TD*%
%TO.P,R6,1*%
%TO.N,Net-(U2-Q5)*%
X118185396Y-48989198D03*
%TO.P,R6,2*%
%TO.N,Net-(D6-A)*%
X118185396Y-38829198D03*
%TD*%
D13*
%TO.P,U1,1,GND*%
%TO.N,Net-(BT1--)*%
X72613902Y-64672569D03*
D12*
%TO.P,U1,2,TR*%
%TO.N,Net-(U1-THR)*%
X72613902Y-67212569D03*
%TO.P,U1,3,Q*%
%TO.N,Net-(U1-Q)*%
X72613902Y-69752569D03*
%TO.P,U1,4,R*%
%TO.N,Net-(SW1-COM)*%
X72613902Y-72292569D03*
%TO.P,U1,5,CV*%
%TO.N,unconnected-(U1-CV-Pad5)*%
X64993902Y-72292569D03*
%TO.P,U1,6,THR*%
%TO.N,Net-(U1-THR)*%
X64993902Y-69752569D03*
%TO.P,U1,7,DIS*%
%TO.N,Net-(U1-DIS)*%
X64993902Y-67212569D03*
%TO.P,U1,8,VCC*%
%TO.N,Net-(SW1-COM)*%
X64993902Y-64672569D03*
%TD*%
%TO.P,R1,1*%
%TO.N,Net-(U2-Q0)*%
X89600000Y-39840000D03*
%TO.P,R1,2*%
%TO.N,Net-(D1-A)*%
X89600000Y-50000000D03*
%TD*%
D14*
%TO.P,C2,1*%
%TO.N,Net-(U1-THR)*%
X33786859Y-64556747D03*
D15*
%TO.P,C2,2*%
%TO.N,Net-(BT1--)*%
X51786859Y-64556747D03*
%TD*%
D16*
%TO.P,BT1,1,+*%
%TO.N,Net-(BT1-+)*%
X49462979Y-48250947D03*
X74062979Y-48250947D03*
%TD*%
D12*
%TO.P,R3,1*%
%TO.N,Net-(U2-Q2)*%
X108335846Y-53400000D03*
%TO.P,R3,2*%
%TO.N,Net-(D3-A)*%
X108335846Y-43240000D03*
%TD*%
%TO.P,R8,1*%
%TO.N,Net-(U2-Q7)*%
X117778237Y-51832986D03*
%TO.P,R8,2*%
%TO.N,Net-(D8-A)*%
X127938237Y-51832986D03*
%TD*%
D14*
%TO.P,C1,1*%
%TO.N,Net-(SW1-COM)*%
X44543955Y-58557598D03*
D17*
%TO.P,C1,2*%
%TO.N,Net-(BT1--)*%
X44543955Y-40557598D03*
%TD*%
D12*
%TO.P,R9,1*%
%TO.N,Net-(SW1-COM)*%
X72333315Y-77777757D03*
%TO.P,R9,2*%
%TO.N,Net-(U1-DIS)*%
X62173315Y-77777757D03*
%TD*%
%TO.P,R5,1*%
%TO.N,Net-(U2-Q4)*%
X132061390Y-51277946D03*
%TO.P,R5,2*%
%TO.N,Net-(D5-A)*%
X132061390Y-41117946D03*
%TD*%
%TO.P,R4,1*%
%TO.N,Net-(U2-Q3)*%
X112379707Y-30298410D03*
%TO.P,R4,2*%
%TO.N,Net-(D4-A)*%
X102219707Y-30298410D03*
%TD*%
%TO.P,R10,1*%
%TO.N,Net-(U1-DIS)*%
X60064229Y-63640918D03*
%TO.P,R10,2*%
%TO.N,Net-(R10-Pad2)*%
X60064229Y-73800918D03*
%TD*%
%TO.P,R7,1*%
%TO.N,Net-(U2-Q6)*%
X121674217Y-49057787D03*
%TO.P,R7,2*%
%TO.N,Net-(D7-A)*%
X121674217Y-38897787D03*
%TD*%
D18*
%TO.P,SW1,1*%
%TO.N,Net-(BT1-+)*%
X99350132Y-65438423D03*
%TO.P,SW1,2,COM*%
%TO.N,Net-(SW1-COM)*%
X99350132Y-67938423D03*
%TO.P,SW1,3*%
%TO.N,unconnected-(SW1-Pad3)*%
X99350132Y-70438423D03*
%TD*%
D11*
%TO.P,R11,1*%
%TO.N,Net-(U1-THR)*%
X51442781Y-77590185D03*
%TO.P,R11,2*%
%TO.N,Net-(R10-Pad2)*%
X53942781Y-82590185D03*
%TO.P,R11,3*%
%TO.N,N/C*%
X56442781Y-77590185D03*
%TD*%
D13*
%TO.P,U2,1,Q5*%
%TO.N,Net-(U2-Q5)*%
X86056506Y-54759804D03*
D12*
%TO.P,U2,2,Q1*%
%TO.N,Net-(U2-Q1)*%
X86056506Y-57299804D03*
%TO.P,U2,3,Q0*%
%TO.N,Net-(U2-Q0)*%
X86056506Y-59839804D03*
%TO.P,U2,4,Q2*%
%TO.N,Net-(U2-Q2)*%
X86056506Y-62379804D03*
%TO.P,U2,5,Q6*%
%TO.N,Net-(U2-Q6)*%
X86056506Y-64919804D03*
%TO.P,U2,6,Q7*%
%TO.N,Net-(U2-Q7)*%
X86056506Y-67459804D03*
%TO.P,U2,7,Q3*%
%TO.N,Net-(U2-Q3)*%
X86056506Y-69999804D03*
%TO.P,U2,8,VSS*%
%TO.N,Net-(BT1--)*%
X86056506Y-72539804D03*
%TO.P,U2,9,Q8*%
%TO.N,unconnected-(U2-Q8-Pad9)*%
X78436506Y-72539804D03*
%TO.P,U2,10,Q4*%
%TO.N,Net-(U2-Q4)*%
X78436506Y-69999804D03*
%TO.P,U2,11,Q9*%
%TO.N,unconnected-(U2-Q9-Pad11)*%
X78436506Y-67459804D03*
%TO.P,U2,12,Cout*%
%TO.N,unconnected-(U2-Cout-Pad12)*%
X78436506Y-64919804D03*
%TO.P,U2,13,CKEN*%
%TO.N,Net-(BT1--)*%
X78436506Y-62379804D03*
%TO.P,U2,14,CLK*%
%TO.N,Net-(U1-Q)*%
X78436506Y-59839804D03*
%TO.P,U2,15,Reset*%
%TO.N,Net-(BT1--)*%
X78436506Y-57299804D03*
%TO.P,U2,16,VDD*%
%TO.N,Net-(SW1-COM)*%
X78436506Y-54759804D03*
%TD*%
D19*
%TO.N,Net-(BT1--)*%
X89300000Y-66600000D03*
X89300000Y-62700000D03*
%TD*%
D20*
%TO.N,Net-(BT1--)*%
X89300000Y-62700000D02*
X89300000Y-66600000D01*
X101100000Y-49774171D02*
X101100000Y-53316066D01*
X101100000Y-53316066D02*
X97000000Y-57416066D01*
X101100000Y-49774171D02*
X103847953Y-47026218D01*
%TO.N,Net-(D3-A)*%
X108335846Y-43240000D02*
X108335846Y-46283555D01*
X108335846Y-46283555D02*
X114155834Y-52103543D01*
%TO.N,Net-(U2-Q0)*%
X84955506Y-58738804D02*
X86056506Y-59839804D01*
X89500000Y-39840000D02*
X89500000Y-42042000D01*
X89500000Y-42042000D02*
X84955506Y-46586494D01*
X84955506Y-46586494D02*
X84955506Y-58738804D01*
%TO.N,Net-(U2-Q1)*%
X86056506Y-56637242D02*
X86056506Y-57299804D01*
X86360196Y-57299804D02*
X86056506Y-57299804D01*
X92600000Y-51060000D02*
X86360196Y-57299804D01*
%TO.N,Net-(U2-Q2)*%
X102900000Y-54100000D02*
X97700000Y-59300000D01*
X97700000Y-59300000D02*
X90267680Y-59300000D01*
X87187876Y-62379804D02*
X86056506Y-62379804D01*
X90267680Y-59300000D02*
X87187876Y-62379804D01*
X107635846Y-54100000D02*
X102900000Y-54100000D01*
X108335846Y-53400000D02*
X107635846Y-54100000D01*
%TO.N,Net-(U2-Q3)*%
X112379707Y-36092464D02*
X87193367Y-61278804D01*
X84955506Y-61923754D02*
X84955506Y-68898804D01*
X87193367Y-61278804D02*
X85600456Y-61278804D01*
X112379707Y-30298410D02*
X112379707Y-36092464D01*
X84955506Y-68898804D02*
X86056506Y-69999804D01*
X85600456Y-61278804D02*
X84955506Y-61923754D01*
%TO.N,Net-(U2-Q4)*%
X103200000Y-55100000D02*
X128239336Y-55100000D01*
X78436506Y-69999804D02*
X79537506Y-71100804D01*
X87199196Y-71100804D02*
X103200000Y-55100000D01*
X128239336Y-55100000D02*
X132061390Y-51277946D01*
X79537506Y-71100804D02*
X87199196Y-71100804D01*
%TO.N,Net-(SW1-COM)*%
X93461577Y-67938423D02*
X99350132Y-67938423D01*
X64993902Y-64672569D02*
X68523741Y-64672569D01*
X72613902Y-72292569D02*
X73962137Y-73640804D01*
X73962137Y-73640804D02*
X87759196Y-73640804D01*
X72613902Y-72292569D02*
X64993902Y-64672569D01*
X72333315Y-77777757D02*
X72333315Y-72573156D01*
X87759196Y-73640804D02*
X93461577Y-67938423D01*
X72333315Y-72573156D02*
X72613902Y-72292569D01*
X68523741Y-64672569D02*
X78436506Y-54759804D01*
%TO.N,Net-(U1-DIS)*%
X66094902Y-68313569D02*
X64993902Y-67212569D01*
X62173315Y-77777757D02*
X66094902Y-73856170D01*
X66094902Y-73856170D02*
X66094902Y-68313569D01*
%TO.N,Net-(R10-Pad2)*%
X60064229Y-76468737D02*
X53942781Y-82590185D01*
X60064229Y-73800918D02*
X60064229Y-76468737D01*
%TO.N,Net-(U1-Q)*%
X75300000Y-62976310D02*
X78436506Y-59839804D01*
X72613902Y-69752569D02*
X75300000Y-67066471D01*
X75300000Y-67066471D02*
X75300000Y-62976310D01*
%TO.N,Net-(U2-Q7)*%
X115110223Y-54501000D02*
X103199000Y-54501000D01*
X90240196Y-67459804D02*
X86056506Y-67459804D01*
X103199000Y-54501000D02*
X90240196Y-67459804D01*
X117778237Y-51832986D02*
X115110223Y-54501000D01*
%TD*%
%TA.AperFunction,Conductor*%
%TO.N,Net-(BT1-+)*%
G36*
X57390380Y-27493489D02*
G01*
X57396452Y-27493743D01*
X57475220Y-27499011D01*
X57481114Y-27499547D01*
X57560879Y-27508752D01*
X57566562Y-27509544D01*
X57647052Y-27522678D01*
X57652612Y-27523717D01*
X57697014Y-27533061D01*
X57733615Y-27540763D01*
X57738967Y-27542014D01*
X57820342Y-27562965D01*
X57825486Y-27564410D01*
X57906922Y-27589208D01*
X57911894Y-27590839D01*
X57993148Y-27619423D01*
X57997959Y-27621229D01*
X58078738Y-27653509D01*
X58083423Y-27655495D01*
X58126755Y-27674919D01*
X58157500Y-27688701D01*
X58163457Y-27691371D01*
X58167994Y-27693517D01*
X58246966Y-27732850D01*
X58251362Y-27735151D01*
X58329145Y-27777883D01*
X58333413Y-27780339D01*
X58409586Y-27826243D01*
X58413751Y-27828867D01*
X58488139Y-27877831D01*
X58492175Y-27880604D01*
X58556790Y-27926917D01*
X58564465Y-27932418D01*
X58568382Y-27935345D01*
X58638472Y-27989932D01*
X58642246Y-27992995D01*
X58669942Y-28016406D01*
X58709692Y-28050006D01*
X58713446Y-28053311D01*
X58778095Y-28112590D01*
X58781756Y-28116087D01*
X58843416Y-28177443D01*
X58846979Y-28181139D01*
X58905418Y-28244315D01*
X58908871Y-28248209D01*
X58963951Y-28313027D01*
X58967300Y-28317144D01*
X58988898Y-28344891D01*
X59005064Y-28365661D01*
X59007199Y-28368403D01*
X59013629Y-28377475D01*
X59060946Y-28451029D01*
X59222460Y-28702100D01*
X59223852Y-28704315D01*
X59440547Y-29057313D01*
X59442043Y-29059816D01*
X59649580Y-29416441D01*
X59651165Y-29419248D01*
X59848421Y-29779431D01*
X59850078Y-29782561D01*
X60035957Y-30146251D01*
X60037662Y-30149720D01*
X60211071Y-30516820D01*
X60212799Y-30520644D01*
X60372692Y-30891097D01*
X60374412Y-30895292D01*
X60515660Y-31258494D01*
X60521039Y-31272325D01*
X60539548Y-31325531D01*
X60546003Y-31336521D01*
X60549609Y-31345792D01*
X60549610Y-31345793D01*
X60550628Y-31348411D01*
X60550633Y-31348420D01*
X60579707Y-31394057D01*
X60579708Y-31394057D01*
X60580903Y-31395932D01*
X60609438Y-31444508D01*
X60617918Y-31454032D01*
X60623266Y-31462426D01*
X60624772Y-31464790D01*
X60662194Y-31503881D01*
X60663746Y-31505502D01*
X60701198Y-31547565D01*
X60711372Y-31555251D01*
X60720194Y-31564466D01*
X60764502Y-31595489D01*
X60768126Y-31598126D01*
X60811293Y-31630737D01*
X60811296Y-31630738D01*
X60811298Y-31630740D01*
X60812906Y-31631518D01*
X60813815Y-31631958D01*
X60830938Y-31642008D01*
X60833222Y-31643607D01*
X60833223Y-31643607D01*
X60833227Y-31643610D01*
X60882754Y-31665401D01*
X60882755Y-31665402D01*
X60884798Y-31666301D01*
X60935510Y-31690837D01*
X60947852Y-31694044D01*
X60955628Y-31697465D01*
X60959529Y-31699182D01*
X61014530Y-31711374D01*
X61069059Y-31725547D01*
X61081791Y-31726285D01*
X61094245Y-31729046D01*
X61148372Y-31730225D01*
X61152802Y-31730403D01*
X61391228Y-31744229D01*
X61394347Y-31744449D01*
X61636679Y-31764670D01*
X61639812Y-31764972D01*
X61880987Y-31791401D01*
X61884246Y-31791802D01*
X61910780Y-31795423D01*
X62124171Y-31824544D01*
X62127419Y-31825031D01*
X62365840Y-31864177D01*
X62369222Y-31864780D01*
X62605963Y-31910422D01*
X62609293Y-31911114D01*
X62844217Y-31963359D01*
X62847710Y-31964190D01*
X63019755Y-32007729D01*
X63030471Y-32010962D01*
X63030600Y-32011006D01*
X63030609Y-32011011D01*
X63094963Y-32026761D01*
X63159185Y-32043014D01*
X63161946Y-32043155D01*
X63164157Y-32043697D01*
X63164639Y-32043815D01*
X63230826Y-32046707D01*
X63296989Y-32050119D01*
X63299729Y-32049719D01*
X63302494Y-32049840D01*
X63367661Y-32039812D01*
X63368311Y-32039715D01*
X63433530Y-32030203D01*
X63433536Y-32030200D01*
X63433653Y-32030172D01*
X63436673Y-32029423D01*
X63436693Y-32029418D01*
X63438402Y-32028994D01*
X63438765Y-32028883D01*
X63438859Y-32028858D01*
X63438875Y-32028856D01*
X63500707Y-32006354D01*
X63500708Y-32006354D01*
X63501228Y-32006164D01*
X63563562Y-31984032D01*
X63565934Y-31982617D01*
X63568526Y-31981674D01*
X63568527Y-31981673D01*
X63568542Y-31981668D01*
X63618615Y-31951286D01*
X63624868Y-31947492D01*
X63624869Y-31947492D01*
X63625320Y-31947218D01*
X63682090Y-31913379D01*
X63684141Y-31911528D01*
X63686507Y-31910093D01*
X63686509Y-31910091D01*
X63686513Y-31910089D01*
X63735384Y-31865311D01*
X63784555Y-31820962D01*
X63786206Y-31818744D01*
X63788240Y-31816882D01*
X63788239Y-31816882D01*
X63788251Y-31816872D01*
X63827319Y-31763593D01*
X63827657Y-31763138D01*
X63832495Y-31756648D01*
X63867022Y-31710330D01*
X63867027Y-31710318D01*
X63867072Y-31710246D01*
X63868698Y-31707546D01*
X63868698Y-31707545D01*
X63868734Y-31707486D01*
X63869616Y-31706022D01*
X63869795Y-31705686D01*
X63869839Y-31705609D01*
X63869849Y-31705597D01*
X63897650Y-31645982D01*
X63898016Y-31645206D01*
X63899538Y-31642008D01*
X63926321Y-31585735D01*
X63926324Y-31585721D01*
X63926356Y-31585635D01*
X63926357Y-31585632D01*
X63927390Y-31582765D01*
X63927391Y-31582762D01*
X63927403Y-31582731D01*
X63928027Y-31580998D01*
X63928140Y-31580625D01*
X63928163Y-31580555D01*
X63928170Y-31580542D01*
X63943916Y-31516206D01*
X63960173Y-31451966D01*
X63960315Y-31449201D01*
X63974479Y-31391327D01*
X63976304Y-31384682D01*
X64006451Y-31285756D01*
X64008617Y-31279293D01*
X64044376Y-31181641D01*
X64046873Y-31175361D01*
X64088096Y-31079456D01*
X64090931Y-31073332D01*
X64137345Y-30979858D01*
X64140505Y-30973909D01*
X64191893Y-30883327D01*
X64195408Y-30877515D01*
X64251402Y-30790480D01*
X64255336Y-30784727D01*
X64315644Y-30701681D01*
X64319938Y-30696109D01*
X64384270Y-30617440D01*
X64388976Y-30612017D01*
X64456916Y-30538215D01*
X64462111Y-30532902D01*
X64474255Y-30521203D01*
X64533324Y-30464299D01*
X64538945Y-30459208D01*
X64613152Y-30396050D01*
X64619257Y-30391179D01*
X64696132Y-30333725D01*
X64702723Y-30329126D01*
X64787943Y-30273696D01*
X64793164Y-30270483D01*
X64827833Y-30250324D01*
X64831439Y-30248307D01*
X64872604Y-30226206D01*
X64876295Y-30224306D01*
X64898110Y-30213544D01*
X64926590Y-30203585D01*
X65087159Y-30168627D01*
X65094295Y-30167293D01*
X65321326Y-30131726D01*
X65328162Y-30130850D01*
X65558605Y-30107822D01*
X65565028Y-30107350D01*
X65798932Y-30096294D01*
X65804931Y-30096157D01*
X66042273Y-30096506D01*
X66047771Y-30096639D01*
X66288365Y-30107824D01*
X66293416Y-30108163D01*
X66537126Y-30129589D01*
X66541669Y-30130075D01*
X66788024Y-30161085D01*
X66792141Y-30161675D01*
X67040860Y-30201589D01*
X67044570Y-30202241D01*
X67295266Y-30250320D01*
X67298488Y-30250983D01*
X67550764Y-30306453D01*
X67553559Y-30307102D01*
X67803612Y-30368311D01*
X67807078Y-30369213D01*
X68236892Y-30487760D01*
X68320729Y-30510883D01*
X68324119Y-30511870D01*
X68777490Y-30650910D01*
X68780864Y-30652680D01*
X68843439Y-30671135D01*
X68905774Y-30690252D01*
X68905781Y-30690252D01*
X68908325Y-30690767D01*
X68918853Y-30693376D01*
X69263198Y-30794934D01*
X69268169Y-30796515D01*
X69663763Y-30931517D01*
X69668725Y-30933330D01*
X70058735Y-31085316D01*
X70063673Y-31087365D01*
X70386154Y-31229520D01*
X70446555Y-31256146D01*
X70451575Y-31258494D01*
X70825782Y-31443842D01*
X70830834Y-31446491D01*
X71194878Y-31648165D01*
X71199964Y-31651142D01*
X71552508Y-31868952D01*
X71557620Y-31872288D01*
X71897162Y-32105908D01*
X71902290Y-32109633D01*
X72227552Y-32358843D01*
X72232667Y-32362982D01*
X72325581Y-32442350D01*
X72542353Y-32627521D01*
X72547442Y-32632118D01*
X72840293Y-32911714D01*
X72845307Y-32916784D01*
X73120214Y-33211284D01*
X73125087Y-33216829D01*
X73373855Y-33517508D01*
X73380925Y-33526053D01*
X73385641Y-33532128D01*
X73625277Y-33861372D01*
X73628652Y-33866249D01*
X73689967Y-33959564D01*
X73734921Y-34027980D01*
X73735097Y-34028247D01*
X73737252Y-34031648D01*
X73812231Y-34154282D01*
X73841854Y-34202733D01*
X73843933Y-34206263D01*
X73943019Y-34381050D01*
X73944996Y-34384677D01*
X73966218Y-34425218D01*
X74034976Y-34556569D01*
X74036480Y-34559442D01*
X74057654Y-34605579D01*
X74068404Y-34620429D01*
X74072564Y-34628375D01*
X74072566Y-34628378D01*
X74076916Y-34636687D01*
X74093058Y-34656706D01*
X74106770Y-34673712D01*
X74108796Y-34676225D01*
X74138569Y-34717351D01*
X74152012Y-34729820D01*
X74157636Y-34736795D01*
X74157641Y-34736800D01*
X74163530Y-34744104D01*
X74200027Y-34774586D01*
X74204865Y-34778845D01*
X74239735Y-34811189D01*
X74239738Y-34811191D01*
X74247720Y-34816101D01*
X74247721Y-34816102D01*
X74255364Y-34820803D01*
X74269436Y-34832557D01*
X74314014Y-34856881D01*
X74357265Y-34883487D01*
X74374458Y-34889863D01*
X74390563Y-34898651D01*
X74439022Y-34913807D01*
X74442045Y-34914929D01*
X74465099Y-34923478D01*
X74486641Y-34931468D01*
X74495905Y-34932951D01*
X74513298Y-34937041D01*
X74522259Y-34939844D01*
X74569554Y-34944913D01*
X74569555Y-34944914D01*
X74572756Y-34945257D01*
X74622891Y-34953286D01*
X74641217Y-34952597D01*
X74659458Y-34954553D01*
X74706822Y-34950299D01*
X74713246Y-34949890D01*
X74760781Y-34948105D01*
X74778625Y-34943853D01*
X74796892Y-34942213D01*
X74845599Y-34927894D01*
X74848736Y-34927147D01*
X74848737Y-34927147D01*
X74871303Y-34921769D01*
X74895009Y-34916122D01*
X74903532Y-34912210D01*
X74903533Y-34912210D01*
X74911683Y-34908469D01*
X74929277Y-34903298D01*
X74974267Y-34879746D01*
X75020419Y-34858566D01*
X75028009Y-34853070D01*
X75043218Y-34843652D01*
X75051527Y-34839304D01*
X75091059Y-34807427D01*
X75132191Y-34777651D01*
X75144664Y-34764203D01*
X75158943Y-34752690D01*
X75189439Y-34716175D01*
X75193661Y-34711378D01*
X75284878Y-34613039D01*
X75291183Y-34606717D01*
X75358755Y-34543661D01*
X75383656Y-34520424D01*
X75390213Y-34514722D01*
X75489675Y-34434218D01*
X75496472Y-34429095D01*
X75602221Y-34354946D01*
X75609229Y-34350378D01*
X75720611Y-34283038D01*
X75727802Y-34279013D01*
X75843992Y-34218990D01*
X75851415Y-34215462D01*
X75971602Y-34163167D01*
X75979247Y-34160139D01*
X75982641Y-34158923D01*
X76102552Y-34115956D01*
X76110359Y-34113448D01*
X76235931Y-34077681D01*
X76243968Y-34075682D01*
X76370874Y-34048596D01*
X76379170Y-34047120D01*
X76506520Y-34028901D01*
X76515058Y-34027981D01*
X76642029Y-34018742D01*
X76650828Y-34018416D01*
X76776632Y-34018217D01*
X76785655Y-34018531D01*
X76909628Y-34027386D01*
X76918829Y-34028391D01*
X77040384Y-34046288D01*
X77049733Y-34048033D01*
X77194520Y-34080894D01*
X77196214Y-34081292D01*
X77272653Y-34099795D01*
X77279382Y-34101625D01*
X77336161Y-34118800D01*
X77342778Y-34121007D01*
X77397035Y-34140812D01*
X77403474Y-34143368D01*
X77439668Y-34158923D01*
X77455689Y-34165808D01*
X77461909Y-34168688D01*
X77512426Y-34193791D01*
X77518364Y-34196945D01*
X77567576Y-34224823D01*
X77573199Y-34228208D01*
X77592920Y-34240804D01*
X77621365Y-34258972D01*
X77626655Y-34262546D01*
X77673931Y-34296289D01*
X77678863Y-34299998D01*
X77725465Y-34336893D01*
X77730014Y-34340674D01*
X77769160Y-34374841D01*
X77775302Y-34380581D01*
X77872364Y-34477675D01*
X77879397Y-34485327D01*
X77966744Y-34588737D01*
X77972529Y-34596137D01*
X78056596Y-34712503D01*
X78061303Y-34719509D01*
X78141406Y-34847976D01*
X78145209Y-34854510D01*
X78154973Y-34872529D01*
X78214557Y-34982495D01*
X78220674Y-34993783D01*
X78223736Y-34999822D01*
X78294076Y-35148479D01*
X78296535Y-35154023D01*
X78361323Y-35310284D01*
X78363296Y-35315355D01*
X78381517Y-35365404D01*
X78414684Y-35456506D01*
X78422311Y-35477454D01*
X78423897Y-35482093D01*
X78477070Y-35648307D01*
X78478343Y-35652545D01*
X78525641Y-35820872D01*
X78526664Y-35824756D01*
X78561062Y-35964389D01*
X78563455Y-35976792D01*
X78567202Y-36003460D01*
X78567203Y-36003461D01*
X78577111Y-36031839D01*
X78577112Y-36031839D01*
X78579042Y-36037367D01*
X78587630Y-36072228D01*
X78601727Y-36102336D01*
X79028904Y-37325772D01*
X79029604Y-37327776D01*
X79030358Y-37330004D01*
X79233828Y-37950308D01*
X79234965Y-37953962D01*
X79417502Y-38574484D01*
X79418556Y-38578289D01*
X79497005Y-38880158D01*
X79497773Y-38883281D01*
X79561700Y-39158390D01*
X79568480Y-39187565D01*
X79569255Y-39191139D01*
X79630308Y-39494158D01*
X79631051Y-39498188D01*
X79681542Y-39799975D01*
X79682209Y-39804463D01*
X79721276Y-40105190D01*
X79721817Y-40110124D01*
X79748619Y-40409961D01*
X79748981Y-40415324D01*
X79762692Y-40714493D01*
X79762822Y-40720254D01*
X79762608Y-41037212D01*
X79762605Y-41037920D01*
X79761068Y-41278670D01*
X79760945Y-41283468D01*
X79750709Y-41510316D01*
X79750405Y-41515041D01*
X79731512Y-41741375D01*
X79731037Y-41746018D01*
X79703610Y-41971728D01*
X79702969Y-41976288D01*
X79667137Y-42201092D01*
X79666340Y-42205564D01*
X79622238Y-42429216D01*
X79621292Y-42433598D01*
X79569046Y-42655885D01*
X79567956Y-42660175D01*
X79507717Y-42880793D01*
X79506490Y-42884994D01*
X79438389Y-43103718D01*
X79437031Y-43107826D01*
X79361207Y-43324420D01*
X79359721Y-43328439D01*
X79276366Y-43542522D01*
X79274758Y-43546453D01*
X79183977Y-43757890D01*
X79182249Y-43761733D01*
X79084238Y-43970173D01*
X79082392Y-43973932D01*
X78977303Y-44179130D01*
X78975343Y-44182805D01*
X78863337Y-44384511D01*
X78861261Y-44388105D01*
X78742523Y-44586025D01*
X78740335Y-44589539D01*
X78615036Y-44783416D01*
X78612734Y-44786851D01*
X78581162Y-44832304D01*
X78481061Y-44976410D01*
X78478659Y-44979749D01*
X78340818Y-45164701D01*
X78338286Y-45167983D01*
X78325129Y-45184458D01*
X78194425Y-45348117D01*
X78191795Y-45351300D01*
X78042140Y-45526316D01*
X78039372Y-45529445D01*
X77884108Y-45699100D01*
X77881218Y-45702152D01*
X77720541Y-45866192D01*
X77717549Y-45869143D01*
X77623898Y-45958442D01*
X77551653Y-46027328D01*
X77548512Y-46030221D01*
X77377607Y-46182296D01*
X77374337Y-46185106D01*
X77198602Y-46330854D01*
X77195198Y-46333577D01*
X77014890Y-46472718D01*
X77011352Y-46475350D01*
X76826562Y-46607739D01*
X76822885Y-46610274D01*
X76633908Y-46735618D01*
X76630091Y-46738050D01*
X76437084Y-46856157D01*
X76433128Y-46858479D01*
X76236251Y-46969161D01*
X76232152Y-46971365D01*
X76051293Y-47064289D01*
X76040958Y-47069013D01*
X76012055Y-47080655D01*
X76012049Y-47080659D01*
X75990451Y-47094787D01*
X75979242Y-47101309D01*
X75956285Y-47113104D01*
X75956279Y-47113108D01*
X75931868Y-47132485D01*
X75922762Y-47139063D01*
X75920960Y-47140243D01*
X75896574Y-47156197D01*
X75896467Y-47156301D01*
X75891288Y-47159697D01*
X75863288Y-47168196D01*
X75836222Y-47179321D01*
X75830245Y-47178225D01*
X75824431Y-47179991D01*
X75796275Y-47172001D01*
X75767497Y-47166728D01*
X75762180Y-47162325D01*
X75757215Y-47160917D01*
X75748361Y-47150884D01*
X75724927Y-47131483D01*
X75642897Y-47024580D01*
X75642896Y-47024580D01*
X74936366Y-47731111D01*
X74851381Y-47603922D01*
X74710004Y-47462545D01*
X74582812Y-47377558D01*
X75289344Y-46671027D01*
X75176503Y-46584441D01*
X75176495Y-46584435D01*
X74949461Y-46453356D01*
X74949450Y-46453351D01*
X74707234Y-46353022D01*
X74453999Y-46285169D01*
X74453988Y-46285167D01*
X74194073Y-46250947D01*
X73931884Y-46250947D01*
X73671969Y-46285167D01*
X73671958Y-46285169D01*
X73418723Y-46353022D01*
X73176507Y-46453351D01*
X73176496Y-46453356D01*
X72949450Y-46584443D01*
X72836612Y-46671026D01*
X72836612Y-46671027D01*
X73543144Y-47377559D01*
X73415954Y-47462545D01*
X73274577Y-47603922D01*
X73189591Y-47731112D01*
X72483059Y-47024580D01*
X72483058Y-47024580D01*
X72396475Y-47137418D01*
X72265388Y-47364464D01*
X72265383Y-47364475D01*
X72165054Y-47606691D01*
X72097201Y-47859926D01*
X72097199Y-47859937D01*
X72062979Y-48119852D01*
X72062979Y-48382041D01*
X72097199Y-48641956D01*
X72097201Y-48641967D01*
X72165054Y-48895202D01*
X72265383Y-49137418D01*
X72265388Y-49137429D01*
X72396467Y-49364463D01*
X72396473Y-49364471D01*
X72483059Y-49477312D01*
X73189590Y-48770780D01*
X73274577Y-48897972D01*
X73415954Y-49039349D01*
X73543143Y-49124334D01*
X72836612Y-49830864D01*
X72836612Y-49830865D01*
X72949454Y-49917452D01*
X72949462Y-49917458D01*
X73176496Y-50048537D01*
X73176507Y-50048542D01*
X73418723Y-50148871D01*
X73671958Y-50216724D01*
X73671969Y-50216726D01*
X73931884Y-50250946D01*
X73931899Y-50250947D01*
X74194059Y-50250947D01*
X74194073Y-50250946D01*
X74453988Y-50216726D01*
X74453999Y-50216724D01*
X74707234Y-50148871D01*
X74949450Y-50048542D01*
X74949461Y-50048537D01*
X75176508Y-49917450D01*
X75217484Y-49886008D01*
X75282653Y-49860813D01*
X75351098Y-49874851D01*
X75401088Y-49923664D01*
X75416752Y-49991756D01*
X75410013Y-50025336D01*
X75400956Y-50051220D01*
X75400953Y-50051228D01*
X75333460Y-50346937D01*
X75333457Y-50346951D01*
X75299500Y-50648336D01*
X75299500Y-50951663D01*
X75333457Y-51253048D01*
X75333460Y-51253062D01*
X75400953Y-51548771D01*
X75400957Y-51548783D01*
X75501133Y-51835068D01*
X75632733Y-52108338D01*
X75632735Y-52108341D01*
X75794108Y-52365164D01*
X75850410Y-52435764D01*
X75973311Y-52589878D01*
X75983221Y-52602304D01*
X76197696Y-52816779D01*
X76434836Y-53005892D01*
X76691659Y-53167265D01*
X76964935Y-53298868D01*
X77177839Y-53373366D01*
X77251216Y-53399042D01*
X77251228Y-53399046D01*
X77546937Y-53466540D01*
X77546946Y-53466541D01*
X77546951Y-53466542D01*
X77625177Y-53475356D01*
X77689591Y-53502422D01*
X77729147Y-53560017D01*
X77731284Y-53629854D01*
X77695326Y-53689761D01*
X77684179Y-53698894D01*
X77589293Y-53767832D01*
X77589288Y-53767836D01*
X77444534Y-53912590D01*
X77324221Y-54078190D01*
X77231287Y-54260580D01*
X77168028Y-54455269D01*
X77136006Y-54657452D01*
X77136006Y-54862155D01*
X77168029Y-55064339D01*
X77172678Y-55078649D01*
X77174671Y-55148491D01*
X77142427Y-55204645D01*
X68311325Y-64035750D01*
X68250002Y-64069235D01*
X68223644Y-64072069D01*
X66223504Y-64072069D01*
X66156465Y-64052384D01*
X66113019Y-64004364D01*
X66106186Y-63990954D01*
X65985873Y-63825355D01*
X65841115Y-63680597D01*
X65675515Y-63560284D01*
X65675514Y-63560283D01*
X65675512Y-63560282D01*
X65590855Y-63517147D01*
X65493125Y-63467350D01*
X65298436Y-63404091D01*
X65123897Y-63376447D01*
X65096254Y-63372069D01*
X64891550Y-63372069D01*
X64867231Y-63375920D01*
X64689367Y-63404091D01*
X64494678Y-63467350D01*
X64312288Y-63560284D01*
X64146688Y-63680597D01*
X64001930Y-63825355D01*
X63881617Y-63990955D01*
X63788683Y-64173345D01*
X63725424Y-64368034D01*
X63693402Y-64570217D01*
X63693402Y-64774920D01*
X63725424Y-64977103D01*
X63788683Y-65171792D01*
X63840037Y-65272578D01*
X63878815Y-65348684D01*
X63881617Y-65354182D01*
X64001930Y-65519782D01*
X64146688Y-65664540D01*
X64294729Y-65772096D01*
X64312292Y-65784856D01*
X64403742Y-65831452D01*
X64404982Y-65832084D01*
X64455778Y-65880059D01*
X64472573Y-65947880D01*
X64450036Y-66014015D01*
X64404982Y-66053054D01*
X64312288Y-66100284D01*
X64146688Y-66220597D01*
X64001930Y-66365355D01*
X63881617Y-66530955D01*
X63788683Y-66713345D01*
X63725424Y-66908034D01*
X63693402Y-67110217D01*
X63693402Y-67314920D01*
X63725424Y-67517103D01*
X63788683Y-67711792D01*
X63881617Y-67894182D01*
X64001930Y-68059782D01*
X64146688Y-68204540D01*
X64287747Y-68307023D01*
X64312292Y-68324856D01*
X64403742Y-68371452D01*
X64404982Y-68372084D01*
X64455778Y-68420059D01*
X64472573Y-68487880D01*
X64450036Y-68554015D01*
X64404982Y-68593054D01*
X64312288Y-68640284D01*
X64146688Y-68760597D01*
X64001930Y-68905355D01*
X63881617Y-69070955D01*
X63788683Y-69253345D01*
X63725424Y-69448034D01*
X63693402Y-69650217D01*
X63693402Y-69854920D01*
X63725424Y-70057103D01*
X63788683Y-70251792D01*
X63833628Y-70340000D01*
X63868188Y-70407828D01*
X63881617Y-70434182D01*
X64001930Y-70599782D01*
X64146688Y-70744540D01*
X64287747Y-70847023D01*
X64312292Y-70864856D01*
X64403742Y-70911452D01*
X64404982Y-70912084D01*
X64455778Y-70960059D01*
X64472573Y-71027880D01*
X64450036Y-71094015D01*
X64404982Y-71133054D01*
X64312288Y-71180284D01*
X64146688Y-71300597D01*
X64001930Y-71445355D01*
X63881617Y-71610955D01*
X63788683Y-71793345D01*
X63725424Y-71988034D01*
X63693402Y-72190217D01*
X63693402Y-72394920D01*
X63725424Y-72597103D01*
X63788683Y-72791792D01*
X63846132Y-72904540D01*
X63881395Y-72973748D01*
X63881617Y-72974182D01*
X64001930Y-73139782D01*
X64146688Y-73284540D01*
X64283799Y-73384155D01*
X64312292Y-73404856D01*
X64397332Y-73448186D01*
X64494678Y-73497787D01*
X64494680Y-73497787D01*
X64494683Y-73497789D01*
X64559958Y-73518998D01*
X64689367Y-73561046D01*
X64750061Y-73570659D01*
X64891550Y-73593069D01*
X64891551Y-73593069D01*
X65096252Y-73593069D01*
X65096254Y-73593069D01*
X65209467Y-73575137D01*
X65278758Y-73584091D01*
X65332210Y-73629087D01*
X65352850Y-73695838D01*
X65334126Y-73763152D01*
X65316544Y-73785291D01*
X62618157Y-76483678D01*
X62556834Y-76517163D01*
X62492163Y-76513930D01*
X62477849Y-76509279D01*
X62303310Y-76481635D01*
X62275667Y-76477257D01*
X62070963Y-76477257D01*
X62046644Y-76481108D01*
X61868780Y-76509279D01*
X61674091Y-76572538D01*
X61491701Y-76665472D01*
X61326101Y-76785785D01*
X61181343Y-76930543D01*
X61061030Y-77096143D01*
X60968096Y-77278533D01*
X60904837Y-77473222D01*
X60872815Y-77675405D01*
X60872815Y-77880108D01*
X60904837Y-78082291D01*
X60968096Y-78276980D01*
X61029282Y-78397062D01*
X61056924Y-78451313D01*
X61061030Y-78459370D01*
X61181343Y-78624970D01*
X61326101Y-78769728D01*
X61455082Y-78863436D01*
X61491705Y-78890044D01*
X61587072Y-78938636D01*
X61674091Y-78982975D01*
X61674093Y-78982975D01*
X61674096Y-78982977D01*
X61758403Y-79010370D01*
X61868780Y-79046234D01*
X61969872Y-79062245D01*
X62070963Y-79078257D01*
X62070964Y-79078257D01*
X62275666Y-79078257D01*
X62275667Y-79078257D01*
X62477849Y-79046234D01*
X62672534Y-78982977D01*
X62854925Y-78890044D01*
X62995382Y-78787997D01*
X63020528Y-78769728D01*
X63020530Y-78769725D01*
X63020534Y-78769723D01*
X63165281Y-78624976D01*
X63165283Y-78624972D01*
X63165286Y-78624970D01*
X63222352Y-78546424D01*
X63285602Y-78459367D01*
X63378535Y-78276976D01*
X63441792Y-78082291D01*
X63473815Y-77880109D01*
X63473815Y-77675405D01*
X63441792Y-77473223D01*
X63437140Y-77458908D01*
X63435147Y-77389069D01*
X63467390Y-77332915D01*
X66575422Y-74224886D01*
X66654479Y-74087954D01*
X66695403Y-73935227D01*
X66695403Y-73777112D01*
X66695403Y-73769517D01*
X66695402Y-73769499D01*
X66695402Y-68234513D01*
X66695402Y-68234512D01*
X66686446Y-68201089D01*
X66654479Y-68081784D01*
X66616451Y-68015918D01*
X66575422Y-67944853D01*
X66463618Y-67833049D01*
X66463617Y-67833048D01*
X66459287Y-67828718D01*
X66459276Y-67828708D01*
X66287979Y-67657411D01*
X66254494Y-67596088D01*
X66257730Y-67531410D01*
X66262379Y-67517103D01*
X66294402Y-67314921D01*
X66294402Y-67121666D01*
X66314087Y-67054627D01*
X66366891Y-67008872D01*
X66436049Y-66998928D01*
X66499605Y-67027953D01*
X66506083Y-67033985D01*
X71319824Y-71847726D01*
X71353309Y-71909049D01*
X71350075Y-71973724D01*
X71345424Y-71988037D01*
X71313402Y-72190217D01*
X71313402Y-72394920D01*
X71345424Y-72597103D01*
X71408683Y-72791792D01*
X71466132Y-72904540D01*
X71501395Y-72973748D01*
X71501617Y-72974182D01*
X71621930Y-73139782D01*
X71696496Y-73214348D01*
X71729981Y-73275671D01*
X71732815Y-73302029D01*
X71732815Y-76548154D01*
X71713130Y-76615193D01*
X71665115Y-76658636D01*
X71651704Y-76665469D01*
X71486101Y-76785785D01*
X71341343Y-76930543D01*
X71221030Y-77096143D01*
X71128096Y-77278533D01*
X71064837Y-77473222D01*
X71032815Y-77675405D01*
X71032815Y-77880108D01*
X71064837Y-78082291D01*
X71128096Y-78276980D01*
X71189282Y-78397062D01*
X71216924Y-78451313D01*
X71221030Y-78459370D01*
X71341343Y-78624970D01*
X71486101Y-78769728D01*
X71615082Y-78863436D01*
X71651705Y-78890044D01*
X71747072Y-78938636D01*
X71834091Y-78982975D01*
X71834093Y-78982975D01*
X71834096Y-78982977D01*
X71918403Y-79010370D01*
X72028780Y-79046234D01*
X72129872Y-79062245D01*
X72230963Y-79078257D01*
X72230964Y-79078257D01*
X72435666Y-79078257D01*
X72435667Y-79078257D01*
X72637849Y-79046234D01*
X72832534Y-78982977D01*
X73014925Y-78890044D01*
X73155382Y-78787997D01*
X73180528Y-78769728D01*
X73180530Y-78769725D01*
X73180534Y-78769723D01*
X73325281Y-78624976D01*
X73325283Y-78624972D01*
X73325286Y-78624970D01*
X73382352Y-78546424D01*
X73445602Y-78459367D01*
X73538535Y-78276976D01*
X73601792Y-78082291D01*
X73633815Y-77880109D01*
X73633815Y-77675405D01*
X73631732Y-77662253D01*
X73601792Y-77473222D01*
X73556346Y-77333356D01*
X73538535Y-77278538D01*
X73538533Y-77278535D01*
X73538533Y-77278533D01*
X73496131Y-77195315D01*
X73445602Y-77096147D01*
X73427741Y-77071563D01*
X73325286Y-76930543D01*
X73180528Y-76785785D01*
X73014925Y-76665469D01*
X73001515Y-76658636D01*
X72950721Y-76610660D01*
X72933815Y-76548154D01*
X72933815Y-73761079D01*
X72953500Y-73694040D01*
X73006304Y-73648285D01*
X73075462Y-73638341D01*
X73139018Y-73667366D01*
X73145496Y-73673398D01*
X73477276Y-74005178D01*
X73477286Y-74005189D01*
X73481616Y-74009519D01*
X73481617Y-74009520D01*
X73593421Y-74121324D01*
X73665536Y-74162959D01*
X73730352Y-74200381D01*
X73883079Y-74241304D01*
X73883080Y-74241304D01*
X87672527Y-74241304D01*
X87672543Y-74241305D01*
X87680139Y-74241305D01*
X87838250Y-74241305D01*
X87838253Y-74241305D01*
X87990981Y-74200381D01*
X88055797Y-74162959D01*
X88127912Y-74121324D01*
X88239716Y-74009520D01*
X88239716Y-74009518D01*
X88249920Y-73999315D01*
X88249923Y-73999310D01*
X93673994Y-68575242D01*
X93735317Y-68541757D01*
X93761675Y-68538923D01*
X98177536Y-68538923D01*
X98244575Y-68558608D01*
X98277854Y-68590037D01*
X98280607Y-68593826D01*
X98280608Y-68593828D01*
X98396304Y-68753069D01*
X98535486Y-68892251D01*
X98694727Y-69007947D01*
X98763745Y-69043113D01*
X98832092Y-69077938D01*
X98882888Y-69125913D01*
X98899683Y-69193734D01*
X98877146Y-69259869D01*
X98832092Y-69298908D01*
X98694726Y-69368899D01*
X98605505Y-69433723D01*
X98535486Y-69484595D01*
X98535484Y-69484597D01*
X98535483Y-69484597D01*
X98396306Y-69623774D01*
X98396306Y-69623775D01*
X98396304Y-69623777D01*
X98377094Y-69650217D01*
X98280608Y-69783017D01*
X98191249Y-69958393D01*
X98130422Y-70145596D01*
X98099632Y-70340000D01*
X98099632Y-70536845D01*
X98130422Y-70731249D01*
X98191249Y-70918452D01*
X98241594Y-71017259D01*
X98280608Y-71093828D01*
X98396304Y-71253069D01*
X98535486Y-71392251D01*
X98694727Y-71507947D01*
X98773006Y-71547832D01*
X98870102Y-71597305D01*
X98870104Y-71597305D01*
X98870107Y-71597307D01*
X98943916Y-71621289D01*
X99057305Y-71658132D01*
X99251710Y-71688923D01*
X99251715Y-71688923D01*
X99448554Y-71688923D01*
X99642958Y-71658132D01*
X99830157Y-71597307D01*
X100005537Y-71507947D01*
X100164778Y-71392251D01*
X100303960Y-71253069D01*
X100419656Y-71093828D01*
X100509016Y-70918448D01*
X100569841Y-70731249D01*
X100577734Y-70681414D01*
X100600632Y-70536845D01*
X100600632Y-70340000D01*
X100569841Y-70145596D01*
X100509014Y-69958393D01*
X100419655Y-69783017D01*
X100303960Y-69623777D01*
X100164778Y-69484595D01*
X100005537Y-69368899D01*
X99868170Y-69298907D01*
X99817375Y-69250934D01*
X99800580Y-69183113D01*
X99823117Y-69116978D01*
X99868171Y-69077938D01*
X99881876Y-69070955D01*
X100005537Y-69007947D01*
X100164778Y-68892251D01*
X100303960Y-68753069D01*
X100419656Y-68593828D01*
X100509016Y-68418448D01*
X100569841Y-68231249D01*
X100584069Y-68141417D01*
X100600632Y-68036845D01*
X100600632Y-67840000D01*
X100569841Y-67645596D01*
X100532739Y-67531410D01*
X100509016Y-67458398D01*
X100509014Y-67458395D01*
X100509014Y-67458393D01*
X100437815Y-67318657D01*
X100419656Y-67283018D01*
X100303960Y-67123777D01*
X100164778Y-66984595D01*
X100059403Y-66908035D01*
X100005535Y-66868897D01*
X99867620Y-66798627D01*
X99816823Y-66750653D01*
X99800028Y-66682832D01*
X99822565Y-66616697D01*
X99867620Y-66577657D01*
X100005273Y-66507520D01*
X100040257Y-66482101D01*
X100040258Y-66482101D01*
X99396580Y-65838423D01*
X99402793Y-65838423D01*
X99504526Y-65811164D01*
X99595738Y-65758503D01*
X99670212Y-65684029D01*
X99722873Y-65592817D01*
X99750132Y-65491084D01*
X99750132Y-65484870D01*
X100393810Y-66128549D01*
X100393810Y-66128548D01*
X100419227Y-66093566D01*
X100508550Y-65918258D01*
X100569353Y-65731128D01*
X100600132Y-65536805D01*
X100600132Y-65340040D01*
X100569353Y-65145717D01*
X100508550Y-64958587D01*
X100419228Y-64783281D01*
X100393810Y-64748296D01*
X100393809Y-64748296D01*
X99750132Y-65391974D01*
X99750132Y-65385762D01*
X99722873Y-65284029D01*
X99670212Y-65192817D01*
X99595738Y-65118343D01*
X99504526Y-65065682D01*
X99402793Y-65038423D01*
X99396579Y-65038423D01*
X100040257Y-64394743D01*
X100040257Y-64394742D01*
X100005277Y-64369328D01*
X99829967Y-64280004D01*
X99642837Y-64219201D01*
X99448514Y-64188423D01*
X99251750Y-64188423D01*
X99057426Y-64219201D01*
X98870293Y-64280005D01*
X98694995Y-64369322D01*
X98694991Y-64369325D01*
X98660005Y-64394743D01*
X98660004Y-64394743D01*
X99303686Y-65038423D01*
X99297471Y-65038423D01*
X99195738Y-65065682D01*
X99104526Y-65118343D01*
X99030052Y-65192817D01*
X98977391Y-65284029D01*
X98950132Y-65385762D01*
X98950132Y-65391975D01*
X98306452Y-64748295D01*
X98306452Y-64748296D01*
X98281034Y-64783282D01*
X98281031Y-64783286D01*
X98191714Y-64958584D01*
X98130910Y-65145717D01*
X98100132Y-65340040D01*
X98100132Y-65536805D01*
X98130910Y-65731128D01*
X98191713Y-65918258D01*
X98281037Y-66093568D01*
X98306451Y-66128548D01*
X98306452Y-66128548D01*
X98950132Y-65484868D01*
X98950132Y-65491084D01*
X98977391Y-65592817D01*
X99030052Y-65684029D01*
X99104526Y-65758503D01*
X99195738Y-65811164D01*
X99297471Y-65838423D01*
X99303685Y-65838423D01*
X98660005Y-66482100D01*
X98660005Y-66482101D01*
X98694990Y-66507519D01*
X98832644Y-66577657D01*
X98883440Y-66625632D01*
X98900235Y-66693452D01*
X98877698Y-66759587D01*
X98832644Y-66798627D01*
X98694726Y-66868899D01*
X98640861Y-66908035D01*
X98535486Y-66984595D01*
X98535484Y-66984597D01*
X98535483Y-66984597D01*
X98396306Y-67123774D01*
X98396306Y-67123775D01*
X98396304Y-67123777D01*
X98373424Y-67155269D01*
X98277854Y-67286809D01*
X98222524Y-67329474D01*
X98177536Y-67337923D01*
X93548247Y-67337923D01*
X93548231Y-67337922D01*
X93540635Y-67337922D01*
X93382520Y-67337922D01*
X93309635Y-67357452D01*
X93229791Y-67378846D01*
X93229786Y-67378849D01*
X93092867Y-67457898D01*
X93092859Y-67457904D01*
X87546780Y-73003985D01*
X87519852Y-73018688D01*
X87494034Y-73035281D01*
X87487833Y-73036172D01*
X87485457Y-73037470D01*
X87459099Y-73040304D01*
X87431982Y-73040304D01*
X87364943Y-73020619D01*
X87319188Y-72967815D01*
X87309244Y-72898657D01*
X87314051Y-72877987D01*
X87324981Y-72844346D01*
X87324981Y-72844342D01*
X87324983Y-72844338D01*
X87357006Y-72642156D01*
X87357006Y-72437452D01*
X87350270Y-72394921D01*
X87324983Y-72235269D01*
X87261724Y-72040580D01*
X87191738Y-71903226D01*
X87180414Y-71881003D01*
X87167519Y-71812335D01*
X87193795Y-71747594D01*
X87250901Y-71707337D01*
X87274721Y-71701769D01*
X87278245Y-71701305D01*
X87278253Y-71701305D01*
X87430981Y-71660381D01*
X87498690Y-71621289D01*
X87567912Y-71581324D01*
X87679716Y-71469520D01*
X87679716Y-71469518D01*
X87689920Y-71459315D01*
X87689924Y-71459310D01*
X99954849Y-59194384D01*
X99958062Y-59192630D01*
X99959999Y-59189520D01*
X99988499Y-59176010D01*
X100016170Y-59160901D01*
X100019823Y-59161162D01*
X100023134Y-59159593D01*
X100054408Y-59163635D01*
X100085862Y-59165885D01*
X100088794Y-59168080D01*
X100092427Y-59168550D01*
X100116552Y-59188860D01*
X100141795Y-59207757D01*
X100143894Y-59211878D01*
X100145878Y-59213548D01*
X100160995Y-59245441D01*
X100178944Y-59303497D01*
X100180845Y-59310332D01*
X100193052Y-59359653D01*
X100193052Y-59359655D01*
X100195186Y-59364199D01*
X100195655Y-59365210D01*
X100199431Y-59373445D01*
X100203376Y-59386954D01*
X100222116Y-59422915D01*
X100223425Y-59425769D01*
X100223520Y-59426427D01*
X100226287Y-59432530D01*
X100237906Y-59462423D01*
X100246563Y-59476017D01*
X100248407Y-59479006D01*
X100251581Y-59484318D01*
X100261063Y-59504511D01*
X100274725Y-59523041D01*
X100277807Y-59528197D01*
X100278129Y-59529444D01*
X100281662Y-59535142D01*
X100287728Y-59546949D01*
X100303962Y-59567398D01*
X100308167Y-59573014D01*
X100309861Y-59575415D01*
X100325451Y-59599897D01*
X100331850Y-59606584D01*
X100337183Y-59614143D01*
X100337398Y-59614774D01*
X100339537Y-59617548D01*
X100363051Y-59642533D01*
X100369869Y-59650416D01*
X100391209Y-59677297D01*
X100391213Y-59677300D01*
X100391790Y-59677790D01*
X100395856Y-59681395D01*
X100422271Y-59705879D01*
X100428260Y-59711823D01*
X100437148Y-59721268D01*
X100443037Y-59727997D01*
X100445982Y-59731618D01*
X100448860Y-59734521D01*
X100455367Y-59740627D01*
X100456253Y-59741568D01*
X100465148Y-59747910D01*
X100472241Y-59753364D01*
X100481399Y-59760947D01*
X100486593Y-59765498D01*
X100489064Y-59767788D01*
X100497254Y-59776130D01*
X100501062Y-59780394D01*
X100501069Y-59780400D01*
X100504554Y-59783025D01*
X100514165Y-59791055D01*
X100514479Y-59791345D01*
X100514863Y-59791702D01*
X100528605Y-59806687D01*
X100688194Y-60012313D01*
X100693557Y-60019780D01*
X100875713Y-60294343D01*
X100879924Y-60300690D01*
X100884560Y-60308254D01*
X101045853Y-60593952D01*
X101050134Y-60601535D01*
X101054078Y-60609123D01*
X101199524Y-60914127D01*
X101202796Y-60921612D01*
X101305036Y-61178275D01*
X101328700Y-61237679D01*
X101331347Y-61244982D01*
X101438149Y-61571171D01*
X101440232Y-61578235D01*
X101528362Y-61913542D01*
X101529943Y-61920329D01*
X101544247Y-61990602D01*
X101597967Y-62254513D01*
X101599815Y-62263589D01*
X101600958Y-62270084D01*
X101653001Y-62620055D01*
X101653764Y-62626248D01*
X101688450Y-62981618D01*
X101688884Y-62987518D01*
X101706716Y-63346843D01*
X101706867Y-63352463D01*
X101708402Y-63714278D01*
X101708309Y-63719639D01*
X101694147Y-64082537D01*
X101693840Y-64087663D01*
X101664639Y-64450009D01*
X101664144Y-64454927D01*
X101620586Y-64815323D01*
X101619920Y-64820061D01*
X101572129Y-65118343D01*
X101568579Y-65140500D01*
X101563547Y-65156308D01*
X101557685Y-65208479D01*
X101557224Y-65211361D01*
X101557223Y-65211370D01*
X101549374Y-65260361D01*
X101549373Y-65260379D01*
X101549646Y-65267677D01*
X101549647Y-65267677D01*
X101549995Y-65276948D01*
X101548144Y-65293434D01*
X101552575Y-65345759D01*
X101552685Y-65348683D01*
X101552685Y-65348684D01*
X101554543Y-65398257D01*
X101556238Y-65405372D01*
X101558387Y-65414394D01*
X101559788Y-65430927D01*
X101574340Y-65481375D01*
X101575017Y-65484218D01*
X101586514Y-65532488D01*
X101589565Y-65539137D01*
X101589566Y-65539137D01*
X101593435Y-65547571D01*
X101598033Y-65563508D01*
X101622153Y-65610159D01*
X101623362Y-65612793D01*
X101623362Y-65612794D01*
X101644059Y-65657902D01*
X101648347Y-65663825D01*
X101653787Y-65671341D01*
X101661408Y-65686080D01*
X101694163Y-65727125D01*
X101695866Y-65729477D01*
X101695866Y-65729478D01*
X101724964Y-65769680D01*
X101730325Y-65774653D01*
X101742917Y-65788218D01*
X101757532Y-65806532D01*
X101762928Y-65813294D01*
X101764778Y-65815672D01*
X101815791Y-65882886D01*
X101817445Y-65885117D01*
X101837568Y-65912915D01*
X101867661Y-65954489D01*
X101869160Y-65956607D01*
X101916670Y-66025221D01*
X101918604Y-66028098D01*
X102018345Y-66181113D01*
X102020425Y-66184417D01*
X102116101Y-66341816D01*
X102117651Y-66344438D01*
X102212352Y-66509217D01*
X102213416Y-66511107D01*
X102307622Y-66681938D01*
X102308290Y-66683168D01*
X102391969Y-66839619D01*
X102466218Y-66978439D01*
X102474938Y-66999010D01*
X102515001Y-67123775D01*
X102576599Y-67315608D01*
X102578406Y-67321786D01*
X102677061Y-67694663D01*
X102678523Y-67700818D01*
X102758194Y-68079018D01*
X102759321Y-68085123D01*
X102820095Y-68467660D01*
X102820904Y-68473705D01*
X102862891Y-68859650D01*
X102863395Y-68865630D01*
X102886712Y-69254011D01*
X102886926Y-69259924D01*
X102891698Y-69649761D01*
X102891631Y-69655607D01*
X102878003Y-70045831D01*
X102877666Y-70051612D01*
X102845791Y-70441295D01*
X102845190Y-70447014D01*
X102795245Y-70835093D01*
X102794383Y-70840755D01*
X102726553Y-71226228D01*
X102725432Y-71231835D01*
X102639933Y-71613631D01*
X102638553Y-71619190D01*
X102535600Y-71996321D01*
X102533957Y-72001833D01*
X102413775Y-72373321D01*
X102411863Y-72378790D01*
X102274736Y-72743530D01*
X102272549Y-72748955D01*
X102140568Y-73055302D01*
X102137912Y-73061470D01*
X102137477Y-73062106D01*
X102110618Y-73124825D01*
X102110512Y-73125072D01*
X102110510Y-73125073D01*
X102110511Y-73125073D01*
X102081959Y-73191346D01*
X102080807Y-73194436D01*
X102056728Y-73250667D01*
X102042266Y-73284437D01*
X102039971Y-73289482D01*
X101973535Y-73427257D01*
X101971045Y-73432140D01*
X101899062Y-73565959D01*
X101896401Y-73570659D01*
X101823362Y-73693318D01*
X101819102Y-73699979D01*
X101643099Y-73956769D01*
X101637007Y-73964918D01*
X101445379Y-74200473D01*
X101438992Y-74207728D01*
X101227484Y-74429863D01*
X101220956Y-74436232D01*
X100990576Y-74645045D01*
X100984035Y-74650575D01*
X100735968Y-74845996D01*
X100729508Y-74850755D01*
X100465172Y-75032578D01*
X100458858Y-75036645D01*
X100179856Y-75204626D01*
X100173735Y-75208078D01*
X100018481Y-75289933D01*
X99881831Y-75361979D01*
X99875905Y-75364904D01*
X99572975Y-75504528D01*
X99567252Y-75506993D01*
X99255309Y-75632177D01*
X99249777Y-75634246D01*
X98930831Y-75744920D01*
X98925470Y-75746644D01*
X98601642Y-75842778D01*
X98596420Y-75844205D01*
X98269938Y-75925805D01*
X98264823Y-75926970D01*
X97926459Y-75996479D01*
X97924827Y-75996802D01*
X97269730Y-76122243D01*
X97263365Y-76123291D01*
X96621617Y-76211872D01*
X96615616Y-76212552D01*
X95970307Y-76269779D01*
X95964724Y-76270148D01*
X95315767Y-76298283D01*
X95310641Y-76298399D01*
X94658168Y-76299687D01*
X94653522Y-76299609D01*
X93997715Y-76276320D01*
X93993561Y-76276103D01*
X93334597Y-76230531D01*
X93330936Y-76230223D01*
X92669219Y-76164714D01*
X92666047Y-76164358D01*
X92001888Y-76081294D01*
X91999196Y-76080928D01*
X91335832Y-75983161D01*
X91332730Y-75982664D01*
X89992024Y-75750230D01*
X89988999Y-75749666D01*
X87363522Y-75227063D01*
X87354313Y-75225230D01*
X87339325Y-75219799D01*
X87286779Y-75211787D01*
X87284026Y-75211239D01*
X87284024Y-75211238D01*
X87234629Y-75201406D01*
X87234617Y-75201405D01*
X87228049Y-75201404D01*
X87228049Y-75201403D01*
X87218666Y-75201401D01*
X87202914Y-75199001D01*
X87149822Y-75201393D01*
X87147012Y-75201393D01*
X87147011Y-75201392D01*
X87096642Y-75201387D01*
X87096629Y-75201388D01*
X87090205Y-75202665D01*
X87080996Y-75204496D01*
X87065068Y-75205215D01*
X87013450Y-75217922D01*
X87010683Y-75218473D01*
X87010680Y-75218472D01*
X86961305Y-75228288D01*
X86961291Y-75228292D01*
X86955229Y-75230802D01*
X86937465Y-75236629D01*
X86931092Y-75238198D01*
X86931081Y-75238202D01*
X86885463Y-75259553D01*
X86885462Y-75259552D01*
X86882898Y-75260751D01*
X86833809Y-75281078D01*
X86820558Y-75289928D01*
X86812056Y-75293908D01*
X86812054Y-75293910D01*
X86806106Y-75296694D01*
X86765539Y-75326527D01*
X86760956Y-75329741D01*
X86719065Y-75357724D01*
X86719061Y-75357728D01*
X86714417Y-75362370D01*
X86700224Y-75374559D01*
X85630832Y-76161000D01*
X85629684Y-76161835D01*
X85070338Y-76563400D01*
X85069286Y-76564146D01*
X84506398Y-76959446D01*
X84505126Y-76960328D01*
X83938779Y-77347596D01*
X83937280Y-77348605D01*
X83366787Y-77726627D01*
X83365056Y-77727753D01*
X82789814Y-78095284D01*
X82787845Y-78096516D01*
X82207835Y-78451971D01*
X82205410Y-78453420D01*
X81093103Y-79100704D01*
X81087462Y-79103794D01*
X79953659Y-79687097D01*
X79947936Y-79689858D01*
X78785265Y-80214524D01*
X78779465Y-80216966D01*
X77591209Y-80682156D01*
X77585337Y-80684286D01*
X76374787Y-81089168D01*
X76368843Y-81090991D01*
X75139370Y-81434730D01*
X75133354Y-81436251D01*
X73888267Y-81718046D01*
X73882178Y-81719265D01*
X72624817Y-81938326D01*
X72618653Y-81939241D01*
X71352361Y-82094794D01*
X71346119Y-82095401D01*
X70074253Y-82186691D01*
X70067934Y-82186983D01*
X68793787Y-82213272D01*
X68787390Y-82213239D01*
X67514340Y-82173809D01*
X67507869Y-82173439D01*
X66239165Y-82067582D01*
X66232624Y-82066861D01*
X64971568Y-81893884D01*
X64964967Y-81892796D01*
X63714808Y-81652013D01*
X63708162Y-81650543D01*
X62481289Y-81343564D01*
X62481288Y-81343564D01*
X62476544Y-81342377D01*
X62437329Y-81329207D01*
X62409775Y-81325670D01*
X62402695Y-81323899D01*
X62402693Y-81323898D01*
X62382825Y-81318927D01*
X62382815Y-81318926D01*
X62346377Y-81317145D01*
X62346377Y-81317144D01*
X62341484Y-81316904D01*
X62300465Y-81311641D01*
X62272756Y-81313547D01*
X62265458Y-81313191D01*
X62245003Y-81312191D01*
X62245002Y-81312191D01*
X62208894Y-81317556D01*
X62208893Y-81317555D01*
X62204051Y-81318274D01*
X62162805Y-81321113D01*
X62136015Y-81328384D01*
X62128795Y-81329457D01*
X62128791Y-81329459D01*
X62108512Y-81332472D01*
X62108510Y-81332473D01*
X62074153Y-81344775D01*
X62069551Y-81346424D01*
X62029636Y-81357259D01*
X62004773Y-81369619D01*
X61997903Y-81372080D01*
X61997900Y-81372082D01*
X61978603Y-81378993D01*
X61947310Y-81397758D01*
X61947311Y-81397759D01*
X61943114Y-81400275D01*
X61906079Y-81418690D01*
X61884094Y-81435672D01*
X61877835Y-81439426D01*
X61877832Y-81439426D01*
X61860270Y-81449960D01*
X61833238Y-81474472D01*
X61833237Y-81474471D01*
X61829601Y-81477768D01*
X61796880Y-81503046D01*
X61778638Y-81523981D01*
X61773235Y-81528881D01*
X61773233Y-81528884D01*
X61758058Y-81542646D01*
X61758049Y-81542656D01*
X61736322Y-81571966D01*
X61730203Y-81579575D01*
X61706236Y-81607083D01*
X61706232Y-81607090D01*
X61696043Y-81624869D01*
X61692416Y-81631198D01*
X61675880Y-81653508D01*
X61658209Y-81690893D01*
X61655775Y-81695141D01*
X61493002Y-81979199D01*
X61491728Y-81981371D01*
X61310703Y-82282915D01*
X61309412Y-82285018D01*
X61122237Y-82583196D01*
X61120938Y-82585220D01*
X60927747Y-82880056D01*
X60926456Y-82881986D01*
X60727455Y-83173391D01*
X60726128Y-83175295D01*
X60521575Y-83463115D01*
X60520240Y-83464957D01*
X60310290Y-83749181D01*
X60308950Y-83750962D01*
X60098380Y-84025558D01*
X60095595Y-84029058D01*
X59487333Y-84765653D01*
X59485175Y-84768196D01*
X59173032Y-85126134D01*
X59171192Y-85128196D01*
X58849778Y-85480592D01*
X58847603Y-85482917D01*
X58518665Y-85825469D01*
X58516119Y-85828043D01*
X58179601Y-86158606D01*
X58176646Y-86161415D01*
X57832225Y-86478181D01*
X57828820Y-86481199D01*
X57476386Y-86782228D01*
X57472483Y-86785427D01*
X57111927Y-87068851D01*
X57107481Y-87072188D01*
X56738511Y-87336358D01*
X56733481Y-87339775D01*
X56356002Y-87582963D01*
X56350354Y-87586393D01*
X55964032Y-87807085D01*
X55957747Y-87810440D01*
X55562206Y-88007178D01*
X55555281Y-88010360D01*
X55149980Y-88181762D01*
X55142447Y-88184663D01*
X54726595Y-88329421D01*
X54718510Y-88331929D01*
X54266487Y-88455425D01*
X54265453Y-88455703D01*
X54105570Y-88497904D01*
X54100470Y-88499135D01*
X53953494Y-88531346D01*
X53948402Y-88532351D01*
X53800682Y-88558300D01*
X53795619Y-88559082D01*
X53647214Y-88578873D01*
X53642197Y-88579438D01*
X53493239Y-88593159D01*
X53488280Y-88593516D01*
X53338773Y-88601261D01*
X53333886Y-88601418D01*
X53183959Y-88603266D01*
X53179154Y-88603232D01*
X53028890Y-88599260D01*
X53024178Y-88599045D01*
X52873708Y-88589331D01*
X52869092Y-88588947D01*
X52725925Y-88574318D01*
X52719205Y-88573445D01*
X52410822Y-88524789D01*
X52402227Y-88523120D01*
X52339983Y-88508733D01*
X52102904Y-88453934D01*
X52094739Y-88451751D01*
X51798214Y-88361543D01*
X51790474Y-88358906D01*
X51498173Y-88248457D01*
X51490838Y-88245414D01*
X51204247Y-88115595D01*
X51197292Y-88112179D01*
X50917927Y-87963948D01*
X50911344Y-87960192D01*
X50640686Y-87794557D01*
X50634452Y-87790477D01*
X50374123Y-87608620D01*
X50368138Y-87604165D01*
X50119580Y-87407244D01*
X50113860Y-87402425D01*
X49878543Y-87191699D01*
X49873081Y-87186500D01*
X49653297Y-86964175D01*
X49647832Y-86958276D01*
X49526646Y-86818643D01*
X49245575Y-86494786D01*
X49243653Y-86492515D01*
X48836502Y-85999471D01*
X48834081Y-85996443D01*
X48701684Y-85825469D01*
X48645204Y-85752533D01*
X48643127Y-85749772D01*
X48621007Y-85719487D01*
X48461803Y-85501512D01*
X48459393Y-85498093D01*
X48289702Y-85248502D01*
X48287018Y-85244380D01*
X48130745Y-84993687D01*
X48127846Y-84988790D01*
X48103074Y-84944662D01*
X47986645Y-84737257D01*
X47983622Y-84731523D01*
X47945559Y-84654530D01*
X47858984Y-84479404D01*
X47855938Y-84472756D01*
X47749132Y-84220161D01*
X47746214Y-84212573D01*
X47658316Y-83959453D01*
X47655683Y-83950880D01*
X47638851Y-83888081D01*
X47585419Y-83688737D01*
X47583760Y-83681738D01*
X47558961Y-83561753D01*
X47558048Y-83556833D01*
X47558004Y-83556565D01*
X47536932Y-83428641D01*
X47536204Y-83423563D01*
X47520463Y-83294610D01*
X47519941Y-83289404D01*
X47509701Y-83159418D01*
X47509396Y-83154072D01*
X47504819Y-83022892D01*
X47504751Y-83017404D01*
X47504755Y-83017040D01*
X47505480Y-82941143D01*
X47506092Y-82929962D01*
X47506116Y-82929716D01*
X47506119Y-82929702D01*
X47506221Y-82863931D01*
X47506227Y-82863009D01*
X47506499Y-82834616D01*
X47506855Y-82797318D01*
X47506853Y-82797310D01*
X47506833Y-82797074D01*
X47506831Y-82797048D01*
X47506585Y-82794281D01*
X47506567Y-82794086D01*
X47506411Y-82792335D01*
X47506359Y-82791969D01*
X47506334Y-82791720D01*
X47506333Y-82791719D01*
X47506334Y-82791714D01*
X47493523Y-82726777D01*
X47481230Y-82661732D01*
X47480174Y-82659113D01*
X47479630Y-82656355D01*
X47479628Y-82656349D01*
X47479626Y-82656338D01*
X47454574Y-82595592D01*
X47454241Y-82594774D01*
X47429643Y-82533747D01*
X47429517Y-82533505D01*
X47428905Y-82532317D01*
X47428612Y-82531766D01*
X47428135Y-82530861D01*
X47427336Y-82529331D01*
X47427138Y-82528997D01*
X47427022Y-82528780D01*
X47427019Y-82528773D01*
X47394515Y-82479963D01*
X52542281Y-82479963D01*
X52542281Y-82700406D01*
X52576766Y-82918137D01*
X52644884Y-83127788D01*
X52644885Y-83127791D01*
X52712903Y-83261281D01*
X52742237Y-83318852D01*
X52744968Y-83324210D01*
X52874533Y-83502543D01*
X52874537Y-83502548D01*
X53030417Y-83658428D01*
X53030422Y-83658432D01*
X53104416Y-83712191D01*
X53208759Y-83788000D01*
X53337156Y-83853422D01*
X53405174Y-83888080D01*
X53405177Y-83888081D01*
X53498212Y-83918309D01*
X53614830Y-83956200D01*
X53832559Y-83990685D01*
X53832560Y-83990685D01*
X54053002Y-83990685D01*
X54053003Y-83990685D01*
X54270732Y-83956200D01*
X54480387Y-83888080D01*
X54676803Y-83788000D01*
X54855146Y-83658427D01*
X55011023Y-83502550D01*
X55140596Y-83324207D01*
X55240676Y-83127791D01*
X55308796Y-82918136D01*
X55343281Y-82700407D01*
X55343281Y-82479963D01*
X55308796Y-82262234D01*
X55285969Y-82191979D01*
X55283974Y-82122138D01*
X55316217Y-82065982D01*
X60544749Y-76837453D01*
X60623806Y-76700521D01*
X60664730Y-76547794D01*
X60664730Y-76389679D01*
X60664730Y-76382084D01*
X60664729Y-76382066D01*
X60664729Y-75030519D01*
X60684414Y-74963480D01*
X60732435Y-74920034D01*
X60745839Y-74913205D01*
X60911448Y-74792884D01*
X61056195Y-74648137D01*
X61056197Y-74648133D01*
X61056200Y-74648131D01*
X61137626Y-74536056D01*
X61176516Y-74482528D01*
X61269449Y-74300137D01*
X61332706Y-74105452D01*
X61364729Y-73903270D01*
X61364729Y-73698566D01*
X61356116Y-73644186D01*
X61332706Y-73496383D01*
X61294161Y-73377756D01*
X61269449Y-73301699D01*
X61269447Y-73301696D01*
X61269447Y-73301694D01*
X61228870Y-73222058D01*
X61176516Y-73119308D01*
X61130014Y-73055303D01*
X61056200Y-72953704D01*
X60911442Y-72808946D01*
X60745842Y-72688633D01*
X60745841Y-72688632D01*
X60745839Y-72688631D01*
X60654625Y-72642155D01*
X60563452Y-72595699D01*
X60368763Y-72532440D01*
X60194224Y-72504796D01*
X60166581Y-72500418D01*
X59961877Y-72500418D01*
X59937558Y-72504269D01*
X59759694Y-72532440D01*
X59565005Y-72595699D01*
X59382615Y-72688633D01*
X59217015Y-72808946D01*
X59072257Y-72953704D01*
X58951944Y-73119304D01*
X58859010Y-73301694D01*
X58795751Y-73496383D01*
X58763729Y-73698566D01*
X58763729Y-73903269D01*
X58795751Y-74105452D01*
X58859010Y-74300141D01*
X58951944Y-74482531D01*
X59072257Y-74648131D01*
X59072263Y-74648137D01*
X59217010Y-74792884D01*
X59382619Y-74913205D01*
X59396022Y-74920034D01*
X59446818Y-74968006D01*
X59463729Y-75030519D01*
X59463729Y-76168639D01*
X59444044Y-76235678D01*
X59427410Y-76256320D01*
X58054962Y-77628768D01*
X57993639Y-77662253D01*
X57923947Y-77657269D01*
X57868014Y-77615397D01*
X57843597Y-77549933D01*
X57843281Y-77541087D01*
X57843281Y-77479963D01*
X57839947Y-77458911D01*
X57808796Y-77262234D01*
X57753160Y-77091000D01*
X57740677Y-77052581D01*
X57740676Y-77052578D01*
X57682982Y-76939350D01*
X57640596Y-76856163D01*
X57594653Y-76792927D01*
X57511028Y-76677826D01*
X57511024Y-76677821D01*
X57355144Y-76521941D01*
X57355139Y-76521937D01*
X57176806Y-76392372D01*
X57176805Y-76392371D01*
X57176803Y-76392370D01*
X57113877Y-76360307D01*
X56980387Y-76292289D01*
X56980384Y-76292288D01*
X56770733Y-76224170D01*
X56661867Y-76206927D01*
X56553003Y-76189685D01*
X56332559Y-76189685D01*
X56259982Y-76201180D01*
X56114828Y-76224170D01*
X55905177Y-76292288D01*
X55905174Y-76292289D01*
X55708755Y-76392372D01*
X55530422Y-76521937D01*
X55530417Y-76521941D01*
X55374537Y-76677821D01*
X55374533Y-76677826D01*
X55244968Y-76856159D01*
X55144885Y-77052578D01*
X55144884Y-77052581D01*
X55076766Y-77262232D01*
X55055070Y-77399217D01*
X55042281Y-77479963D01*
X55042281Y-77700407D01*
X55042485Y-77701696D01*
X55076766Y-77918137D01*
X55144884Y-78127788D01*
X55144885Y-78127791D01*
X55194602Y-78225363D01*
X55220902Y-78276980D01*
X55244968Y-78324210D01*
X55374533Y-78502543D01*
X55374537Y-78502548D01*
X55530417Y-78658428D01*
X55530422Y-78658432D01*
X55611861Y-78717600D01*
X55708759Y-78788000D01*
X55837156Y-78853422D01*
X55905174Y-78888080D01*
X55905177Y-78888081D01*
X55998307Y-78918340D01*
X56114830Y-78956200D01*
X56332559Y-78990685D01*
X56332560Y-78990685D01*
X56393683Y-78990685D01*
X56460722Y-79010370D01*
X56506477Y-79063174D01*
X56516421Y-79132332D01*
X56487396Y-79195888D01*
X56481364Y-79202366D01*
X54466983Y-81216746D01*
X54405660Y-81250231D01*
X54340984Y-81246996D01*
X54307413Y-81236088D01*
X54270733Y-81224170D01*
X54161867Y-81206927D01*
X54053003Y-81189685D01*
X53832559Y-81189685D01*
X53759982Y-81201180D01*
X53614828Y-81224170D01*
X53405177Y-81292288D01*
X53405174Y-81292289D01*
X53208755Y-81392372D01*
X53030422Y-81521937D01*
X53030417Y-81521941D01*
X52874537Y-81677821D01*
X52874533Y-81677826D01*
X52744968Y-81856159D01*
X52644885Y-82052578D01*
X52644884Y-82052581D01*
X52576766Y-82262232D01*
X52542281Y-82479963D01*
X47394515Y-82479963D01*
X47390555Y-82474016D01*
X47390121Y-82473359D01*
X47373848Y-82448493D01*
X47354084Y-82418292D01*
X47354081Y-82418289D01*
X47354080Y-82418287D01*
X47353914Y-82418080D01*
X47353914Y-82418079D01*
X47352130Y-82415864D01*
X47352017Y-82415724D01*
X47350971Y-82414425D01*
X47350711Y-82414135D01*
X47350542Y-82413928D01*
X47350538Y-82413922D01*
X47304163Y-82367402D01*
X47303569Y-82366802D01*
X47257449Y-82319792D01*
X47257441Y-82319786D01*
X47257233Y-82319612D01*
X47248987Y-82312054D01*
X47222035Y-82285018D01*
X47079638Y-82142175D01*
X47078096Y-82140601D01*
X47060345Y-82122138D01*
X46866297Y-81920310D01*
X46864353Y-81918239D01*
X46660821Y-81696320D01*
X46658434Y-81693639D01*
X46656068Y-81690904D01*
X46462072Y-81466627D01*
X46460053Y-81464234D01*
X46422630Y-81418690D01*
X46369188Y-81353651D01*
X46367751Y-81351867D01*
X46277724Y-81238013D01*
X46276286Y-81236156D01*
X46189232Y-81121376D01*
X46187729Y-81119350D01*
X46103902Y-81003724D01*
X46102279Y-81001429D01*
X46021860Y-80884954D01*
X46020170Y-80882441D01*
X45943157Y-80764858D01*
X45941439Y-80762160D01*
X45868022Y-80643498D01*
X45866307Y-80640641D01*
X45795490Y-80518915D01*
X45794122Y-80516498D01*
X45673664Y-80297760D01*
X45672265Y-80295145D01*
X45555746Y-80071036D01*
X45554191Y-80067942D01*
X45444029Y-79840779D01*
X45442345Y-79837159D01*
X45340226Y-79608077D01*
X45338443Y-79603871D01*
X45246000Y-79374087D01*
X45244170Y-79369243D01*
X45163003Y-79140180D01*
X45161166Y-79134578D01*
X45150947Y-79100704D01*
X45092671Y-78907526D01*
X45090933Y-78901149D01*
X45036378Y-78677520D01*
X45034823Y-78670194D01*
X45032696Y-78658432D01*
X44995248Y-78451313D01*
X44994037Y-78443023D01*
X44988901Y-78397062D01*
X44970229Y-78229982D01*
X44969544Y-78220707D01*
X44962076Y-78014381D01*
X44962128Y-78004157D01*
X44971855Y-77795220D01*
X44972514Y-77787002D01*
X44977209Y-77745679D01*
X44982531Y-77698827D01*
X44983313Y-77693134D01*
X44998701Y-77597657D01*
X44999782Y-77591844D01*
X45019622Y-77497833D01*
X45021036Y-77491875D01*
X45024174Y-77479963D01*
X50042281Y-77479963D01*
X50042281Y-77700407D01*
X50042485Y-77701696D01*
X50076766Y-77918137D01*
X50144884Y-78127788D01*
X50144885Y-78127791D01*
X50194602Y-78225363D01*
X50220902Y-78276980D01*
X50244968Y-78324210D01*
X50374533Y-78502543D01*
X50374537Y-78502548D01*
X50530417Y-78658428D01*
X50530422Y-78658432D01*
X50611861Y-78717600D01*
X50708759Y-78788000D01*
X50837156Y-78853422D01*
X50905174Y-78888080D01*
X50905177Y-78888081D01*
X50998307Y-78918340D01*
X51114830Y-78956200D01*
X51332559Y-78990685D01*
X51332560Y-78990685D01*
X51553002Y-78990685D01*
X51553003Y-78990685D01*
X51770732Y-78956200D01*
X51980387Y-78888080D01*
X52176803Y-78788000D01*
X52355146Y-78658427D01*
X52511023Y-78502550D01*
X52640596Y-78324207D01*
X52740676Y-78127791D01*
X52808796Y-77918136D01*
X52843281Y-77700407D01*
X52843281Y-77479963D01*
X52808796Y-77262234D01*
X52753160Y-77091000D01*
X52740677Y-77052581D01*
X52740676Y-77052578D01*
X52682982Y-76939350D01*
X52640596Y-76856163D01*
X52594653Y-76792927D01*
X52511028Y-76677826D01*
X52511024Y-76677821D01*
X52355144Y-76521941D01*
X52355139Y-76521937D01*
X52176806Y-76392372D01*
X52176805Y-76392371D01*
X52176803Y-76392370D01*
X52113877Y-76360307D01*
X51980387Y-76292289D01*
X51980384Y-76292288D01*
X51770733Y-76224170D01*
X51661867Y-76206927D01*
X51553003Y-76189685D01*
X51332559Y-76189685D01*
X51259982Y-76201180D01*
X51114828Y-76224170D01*
X50905177Y-76292288D01*
X50905174Y-76292289D01*
X50708755Y-76392372D01*
X50530422Y-76521937D01*
X50530417Y-76521941D01*
X50374537Y-76677821D01*
X50374533Y-76677826D01*
X50244968Y-76856159D01*
X50144885Y-77052578D01*
X50144884Y-77052581D01*
X50076766Y-77262232D01*
X50055070Y-77399217D01*
X50042281Y-77479963D01*
X45024174Y-77479963D01*
X45033774Y-77443517D01*
X45033777Y-77443505D01*
X45045443Y-77399217D01*
X45047185Y-77393223D01*
X45076377Y-77301539D01*
X45078432Y-77295619D01*
X45112620Y-77204747D01*
X45115045Y-77198783D01*
X45116561Y-77195315D01*
X45154468Y-77108583D01*
X45157198Y-77102756D01*
X45163096Y-77090988D01*
X45181352Y-77064082D01*
X45187413Y-77057278D01*
X45242725Y-76995177D01*
X45316131Y-76912764D01*
X45319457Y-76909175D01*
X45449986Y-76773786D01*
X45524514Y-76696483D01*
X45527746Y-76693253D01*
X45741589Y-76487330D01*
X45744702Y-76484435D01*
X45966969Y-76284782D01*
X45969885Y-76282246D01*
X46200094Y-76088477D01*
X46202885Y-76086198D01*
X46440577Y-75897881D01*
X46443063Y-75895966D01*
X46687754Y-75712679D01*
X46690102Y-75710966D01*
X46941150Y-75532381D01*
X46943314Y-75530877D01*
X47200295Y-75356482D01*
X47202114Y-75355274D01*
X47461823Y-75186365D01*
X47464301Y-75184796D01*
X48005583Y-74851342D01*
X48008135Y-74849814D01*
X48560059Y-74528313D01*
X48561517Y-74527479D01*
X49093480Y-74228352D01*
X49123937Y-74215108D01*
X49153464Y-74194622D01*
X49184799Y-74177003D01*
X49210022Y-74155384D01*
X49237310Y-74136453D01*
X49262273Y-74110600D01*
X49289569Y-74087206D01*
X49306178Y-74066061D01*
X49306181Y-74066058D01*
X49310096Y-74061073D01*
X49333160Y-74037190D01*
X49352597Y-74006968D01*
X49374807Y-73978695D01*
X49389840Y-73949063D01*
X49407803Y-73921135D01*
X49420970Y-73887704D01*
X49437238Y-73855640D01*
X49446200Y-73823646D01*
X49458371Y-73792748D01*
X49464764Y-73757381D01*
X49474462Y-73722768D01*
X49476524Y-73695958D01*
X49476525Y-73695958D01*
X49477011Y-73689638D01*
X49482920Y-73656963D01*
X49482291Y-73621031D01*
X49485050Y-73585189D01*
X49481087Y-73552204D01*
X49480507Y-73518998D01*
X49472880Y-73483878D01*
X49468593Y-73448187D01*
X49458270Y-73416604D01*
X49451224Y-73384155D01*
X49436897Y-73351209D01*
X49425726Y-73317028D01*
X49409437Y-73288060D01*
X49396198Y-73257615D01*
X49375721Y-73228101D01*
X49372861Y-73223014D01*
X49372852Y-73222999D01*
X49369789Y-73217552D01*
X49358094Y-73196753D01*
X49336469Y-73171523D01*
X49317542Y-73144241D01*
X49291692Y-73119280D01*
X49268297Y-73091984D01*
X49268295Y-73091982D01*
X49268294Y-73091981D01*
X49247150Y-73075373D01*
X49247148Y-73075371D01*
X49242168Y-73071459D01*
X49218280Y-73048392D01*
X49188057Y-73028953D01*
X49159785Y-73006745D01*
X49159782Y-73006743D01*
X49159780Y-73006742D01*
X49135805Y-72994579D01*
X49130155Y-72991712D01*
X49102224Y-72973748D01*
X49068794Y-72960581D01*
X49063579Y-72957935D01*
X49063571Y-72957932D01*
X49036729Y-72944314D01*
X49036727Y-72944313D01*
X49010840Y-72937060D01*
X49010840Y-72937061D01*
X49004742Y-72935352D01*
X48973838Y-72923181D01*
X48938471Y-72916787D01*
X48932833Y-72915207D01*
X48932831Y-72915207D01*
X48911994Y-72909369D01*
X48903857Y-72907089D01*
X48877043Y-72905025D01*
X48877043Y-72905024D01*
X48870719Y-72904537D01*
X48838052Y-72898632D01*
X48802139Y-72899259D01*
X48796309Y-72898811D01*
X48796297Y-72898811D01*
X48766278Y-72896501D01*
X48766270Y-72896502D01*
X48739579Y-72899707D01*
X48739580Y-72899708D01*
X48733285Y-72900464D01*
X48700087Y-72901045D01*
X48664970Y-72908670D01*
X48659155Y-72909369D01*
X48659153Y-72909368D01*
X48629285Y-72912957D01*
X48629280Y-72912958D01*
X48629278Y-72912959D01*
X48603717Y-72921312D01*
X48591525Y-72924619D01*
X47650958Y-73128871D01*
X47648342Y-73129409D01*
X46671199Y-73319659D01*
X46668226Y-73320201D01*
X45688541Y-73486281D01*
X45685203Y-73486800D01*
X44703948Y-73625765D01*
X44700236Y-73626234D01*
X43718020Y-73735223D01*
X43713928Y-73735608D01*
X42731544Y-73811759D01*
X42727071Y-73812025D01*
X41745142Y-73852522D01*
X41740290Y-73852627D01*
X40782632Y-73854618D01*
X40770470Y-73854045D01*
X40247168Y-73803574D01*
X40242436Y-73803026D01*
X39695932Y-73729036D01*
X39691210Y-73728304D01*
X39147264Y-73633192D01*
X39142546Y-73632272D01*
X38602384Y-73516081D01*
X38597665Y-73514969D01*
X38062473Y-73377756D01*
X38057748Y-73376445D01*
X37528673Y-73218260D01*
X37523939Y-73216740D01*
X37002209Y-73037672D01*
X36997465Y-73035935D01*
X36484194Y-72836051D01*
X36479441Y-72834086D01*
X35975756Y-72613465D01*
X35970997Y-72611259D01*
X35490450Y-72376070D01*
X35478099Y-72370025D01*
X35473341Y-72367567D01*
X34992268Y-72105778D01*
X34987515Y-72103054D01*
X34519435Y-71820851D01*
X34514700Y-71817849D01*
X34060596Y-71515269D01*
X34055894Y-71511976D01*
X33768447Y-71300603D01*
X33616865Y-71189137D01*
X33612238Y-71185563D01*
X33413154Y-71024092D01*
X33189312Y-70842539D01*
X33184734Y-70838639D01*
X33183947Y-70837935D01*
X32792423Y-70487577D01*
X32784163Y-70479458D01*
X32769828Y-70463985D01*
X32384540Y-70048105D01*
X32380946Y-70044050D01*
X31987966Y-69580473D01*
X31984624Y-69576354D01*
X31611724Y-69096189D01*
X31608645Y-69092050D01*
X31409369Y-68812152D01*
X31255574Y-68596134D01*
X31252780Y-68592036D01*
X30919435Y-68081391D01*
X30916872Y-68077292D01*
X30906707Y-68060304D01*
X30603105Y-67552894D01*
X30600773Y-67548823D01*
X30591232Y-67531410D01*
X30306451Y-67011679D01*
X30304342Y-67007655D01*
X30300214Y-66999417D01*
X30029331Y-66458785D01*
X30027423Y-66454801D01*
X30017903Y-66433979D01*
X29771570Y-65895196D01*
X29769881Y-65891326D01*
X29533072Y-65322082D01*
X29531573Y-65318300D01*
X29342697Y-64817452D01*
X29313666Y-64740468D01*
X29312298Y-64736653D01*
X29225377Y-64481170D01*
X29213172Y-64445296D01*
X32086359Y-64445296D01*
X32086359Y-64668197D01*
X32086360Y-64668213D01*
X32115453Y-64889199D01*
X32115454Y-64889204D01*
X32115455Y-64889210D01*
X32173149Y-65104527D01*
X32173152Y-65104537D01*
X32255323Y-65302915D01*
X32258454Y-65310473D01*
X32369911Y-65503521D01*
X32369916Y-65503527D01*
X32369917Y-65503529D01*
X32505610Y-65680369D01*
X32505616Y-65680376D01*
X32663229Y-65837989D01*
X32663236Y-65837995D01*
X32767838Y-65918258D01*
X32840085Y-65973695D01*
X33033133Y-66085152D01*
X33239078Y-66170457D01*
X33454396Y-66228151D01*
X33675402Y-66257247D01*
X33675409Y-66257247D01*
X33898309Y-66257247D01*
X33898316Y-66257247D01*
X34119322Y-66228151D01*
X34334640Y-66170457D01*
X34540585Y-66085152D01*
X34733633Y-65973695D01*
X34910483Y-65837994D01*
X35068106Y-65680371D01*
X35203807Y-65503521D01*
X35315264Y-65310473D01*
X35400569Y-65104528D01*
X35458263Y-64889210D01*
X35487359Y-64668204D01*
X35487359Y-64445290D01*
X35458263Y-64224284D01*
X35400569Y-64008966D01*
X35315264Y-63803021D01*
X35315262Y-63803018D01*
X35315260Y-63803013D01*
X35207045Y-63615581D01*
X35203810Y-63609979D01*
X35203807Y-63609973D01*
X35162953Y-63556730D01*
X50086359Y-63556730D01*
X50086359Y-65556748D01*
X50086360Y-65556765D01*
X50096859Y-65659543D01*
X50096860Y-65659546D01*
X50152044Y-65826078D01*
X50152046Y-65826083D01*
X50183619Y-65877271D01*
X50244147Y-65975403D01*
X50368203Y-66099459D01*
X50517525Y-66191561D01*
X50684062Y-66246746D01*
X50786850Y-66257247D01*
X52786867Y-66257246D01*
X52889656Y-66246746D01*
X53056193Y-66191561D01*
X53205515Y-66099459D01*
X53329571Y-65975403D01*
X53421673Y-65826081D01*
X53476858Y-65659544D01*
X53487359Y-65556756D01*
X53487358Y-63556739D01*
X53485502Y-63538566D01*
X58763729Y-63538566D01*
X58763729Y-63743270D01*
X58766425Y-63760289D01*
X58795751Y-63945452D01*
X58859010Y-64140141D01*
X58911111Y-64242393D01*
X58946295Y-64311446D01*
X58951944Y-64322531D01*
X59072257Y-64488131D01*
X59217015Y-64632889D01*
X59326298Y-64712286D01*
X59382619Y-64753205D01*
X59498836Y-64812421D01*
X59565005Y-64846136D01*
X59565007Y-64846136D01*
X59565010Y-64846138D01*
X59669366Y-64880045D01*
X59759694Y-64909395D01*
X59860786Y-64925406D01*
X59961877Y-64941418D01*
X59961878Y-64941418D01*
X60166580Y-64941418D01*
X60166581Y-64941418D01*
X60368763Y-64909395D01*
X60563448Y-64846138D01*
X60745839Y-64753205D01*
X60838819Y-64685650D01*
X60911442Y-64632889D01*
X60911444Y-64632886D01*
X60911448Y-64632884D01*
X61056195Y-64488137D01*
X61056197Y-64488133D01*
X61056200Y-64488131D01*
X61162790Y-64341420D01*
X61176516Y-64322528D01*
X61269449Y-64140137D01*
X61332706Y-63945452D01*
X61364729Y-63743270D01*
X61364729Y-63538566D01*
X61357368Y-63492091D01*
X61332706Y-63336383D01*
X61297172Y-63227023D01*
X61269449Y-63141699D01*
X61269447Y-63141696D01*
X61269447Y-63141694D01*
X61225462Y-63055370D01*
X61176516Y-62959308D01*
X61161690Y-62938902D01*
X61056200Y-62793704D01*
X60911442Y-62648946D01*
X60745842Y-62528633D01*
X60745841Y-62528632D01*
X60745839Y-62528631D01*
X60654625Y-62482155D01*
X60563452Y-62435699D01*
X60368763Y-62372440D01*
X60194224Y-62344796D01*
X60166581Y-62340418D01*
X59961877Y-62340418D01*
X59937558Y-62344269D01*
X59759694Y-62372440D01*
X59565005Y-62435699D01*
X59382615Y-62528633D01*
X59217015Y-62648946D01*
X59072257Y-62793704D01*
X58951944Y-62959304D01*
X58859010Y-63141694D01*
X58795751Y-63336383D01*
X58771090Y-63492091D01*
X58763729Y-63538566D01*
X53485502Y-63538566D01*
X53476858Y-63453950D01*
X53421673Y-63287413D01*
X53329571Y-63138091D01*
X53205515Y-63014035D01*
X53081083Y-62937285D01*
X53056195Y-62921934D01*
X53056190Y-62921932D01*
X52986889Y-62898968D01*
X52889656Y-62866748D01*
X52889654Y-62866747D01*
X52786869Y-62856247D01*
X50786857Y-62856247D01*
X50786840Y-62856248D01*
X50684062Y-62866747D01*
X50684059Y-62866748D01*
X50517527Y-62921932D01*
X50517522Y-62921934D01*
X50368201Y-63014036D01*
X50244148Y-63138089D01*
X50152046Y-63287410D01*
X50152044Y-63287415D01*
X50130411Y-63352701D01*
X50096860Y-63453950D01*
X50096860Y-63453951D01*
X50096859Y-63453951D01*
X50086359Y-63556730D01*
X35162953Y-63556730D01*
X35117554Y-63497565D01*
X35068107Y-63433124D01*
X35068101Y-63433117D01*
X34910488Y-63275504D01*
X34910481Y-63275498D01*
X34733641Y-63139805D01*
X34733639Y-63139804D01*
X34733633Y-63139799D01*
X34540585Y-63028342D01*
X34540581Y-63028340D01*
X34334649Y-62943040D01*
X34334642Y-62943038D01*
X34334640Y-62943037D01*
X34119322Y-62885343D01*
X34119316Y-62885342D01*
X34119311Y-62885341D01*
X33898325Y-62856248D01*
X33898322Y-62856247D01*
X33898316Y-62856247D01*
X33675402Y-62856247D01*
X33675396Y-62856247D01*
X33675392Y-62856248D01*
X33454406Y-62885341D01*
X33454399Y-62885342D01*
X33454396Y-62885343D01*
X33317840Y-62921933D01*
X33239078Y-62943037D01*
X33239068Y-62943040D01*
X33033136Y-63028340D01*
X33033132Y-63028342D01*
X32840085Y-63139799D01*
X32840076Y-63139805D01*
X32663236Y-63275498D01*
X32663229Y-63275504D01*
X32505616Y-63433117D01*
X32505610Y-63433124D01*
X32369917Y-63609964D01*
X32369911Y-63609973D01*
X32258454Y-63803020D01*
X32258452Y-63803024D01*
X32173152Y-64008956D01*
X32173149Y-64008966D01*
X32115456Y-64224281D01*
X32115453Y-64224294D01*
X32086360Y-64445280D01*
X32086359Y-64445296D01*
X29213172Y-64445296D01*
X29187326Y-64369328D01*
X29113158Y-64151330D01*
X29111961Y-64147617D01*
X29109680Y-64140141D01*
X28931449Y-63555922D01*
X28930389Y-63552244D01*
X28928775Y-63546299D01*
X28768342Y-62955256D01*
X28767413Y-62951616D01*
X28623652Y-62350360D01*
X28622863Y-62346828D01*
X28499868Y-61755144D01*
X28498565Y-61747760D01*
X28434848Y-61309820D01*
X28325511Y-60558320D01*
X28325326Y-60556996D01*
X28322889Y-60538783D01*
X28245477Y-59960206D01*
X28245008Y-59956202D01*
X28185775Y-59368399D01*
X28185406Y-59363915D01*
X28182034Y-59311320D01*
X28167423Y-59083456D01*
X28167243Y-59079756D01*
X28157921Y-58799488D01*
X28157853Y-58795111D01*
X28158548Y-58519400D01*
X28158663Y-58514411D01*
X28161620Y-58446147D01*
X42843455Y-58446147D01*
X42843455Y-58669048D01*
X42843456Y-58669064D01*
X42872549Y-58890050D01*
X42872550Y-58890055D01*
X42872551Y-58890061D01*
X42926576Y-59091685D01*
X42930245Y-59105378D01*
X42930248Y-59105388D01*
X42995421Y-59262729D01*
X43015550Y-59311324D01*
X43127007Y-59504372D01*
X43127012Y-59504378D01*
X43127013Y-59504380D01*
X43262706Y-59681220D01*
X43262712Y-59681227D01*
X43420325Y-59838840D01*
X43420332Y-59838846D01*
X43523675Y-59918143D01*
X43597181Y-59974546D01*
X43790229Y-60086003D01*
X43857907Y-60114036D01*
X43965619Y-60158652D01*
X43996174Y-60171308D01*
X44211492Y-60229002D01*
X44432498Y-60258098D01*
X44432505Y-60258098D01*
X44655405Y-60258098D01*
X44655412Y-60258098D01*
X44876418Y-60229002D01*
X45091736Y-60171308D01*
X45297681Y-60086003D01*
X45490729Y-59974546D01*
X45667579Y-59838845D01*
X45825202Y-59681222D01*
X45960903Y-59504372D01*
X46072360Y-59311324D01*
X46157665Y-59105379D01*
X46215359Y-58890061D01*
X46244455Y-58669055D01*
X46244455Y-58446141D01*
X46215359Y-58225135D01*
X46157665Y-58009817D01*
X46154732Y-58002737D01*
X46107287Y-57888193D01*
X46072360Y-57803872D01*
X45960903Y-57610824D01*
X45862981Y-57483209D01*
X45825203Y-57433975D01*
X45825197Y-57433968D01*
X45667584Y-57276355D01*
X45667577Y-57276349D01*
X45490737Y-57140656D01*
X45490735Y-57140655D01*
X45490729Y-57140650D01*
X45297681Y-57029193D01*
X45297677Y-57029191D01*
X45091745Y-56943891D01*
X45091738Y-56943889D01*
X45091736Y-56943888D01*
X44876418Y-56886194D01*
X44876412Y-56886193D01*
X44876407Y-56886192D01*
X44655421Y-56857099D01*
X44655418Y-56857098D01*
X44655412Y-56857098D01*
X44432498Y-56857098D01*
X44432492Y-56857098D01*
X44432488Y-56857099D01*
X44211502Y-56886192D01*
X44211495Y-56886193D01*
X44211492Y-56886194D01*
X44099642Y-56916164D01*
X43996174Y-56943888D01*
X43996164Y-56943891D01*
X43790232Y-57029191D01*
X43790228Y-57029193D01*
X43597181Y-57140650D01*
X43597172Y-57140656D01*
X43420332Y-57276349D01*
X43420325Y-57276355D01*
X43262712Y-57433968D01*
X43262706Y-57433975D01*
X43127013Y-57610815D01*
X43127007Y-57610824D01*
X43015550Y-57803871D01*
X43015548Y-57803875D01*
X42930248Y-58009807D01*
X42930245Y-58009817D01*
X42879859Y-58197863D01*
X42872552Y-58225132D01*
X42872549Y-58225145D01*
X42843456Y-58446131D01*
X42843455Y-58446147D01*
X28161620Y-58446147D01*
X28170392Y-58243599D01*
X28170764Y-58237988D01*
X28194500Y-57972028D01*
X28195209Y-57965849D01*
X28231901Y-57704631D01*
X28233027Y-57697962D01*
X28283628Y-57441285D01*
X28285249Y-57434176D01*
X28333289Y-57249021D01*
X28343596Y-57222393D01*
X28558465Y-56814377D01*
X28561826Y-56808404D01*
X28834988Y-56353062D01*
X28838401Y-56347693D01*
X29135155Y-55906516D01*
X29138518Y-55901765D01*
X29457315Y-55473297D01*
X29460574Y-55469110D01*
X29799836Y-55051951D01*
X29802864Y-55048371D01*
X30160831Y-54641294D01*
X30163602Y-54638248D01*
X30538597Y-54239875D01*
X30541021Y-54237375D01*
X30931005Y-53846644D01*
X30933105Y-53844591D01*
X31336208Y-53460174D01*
X31337830Y-53458658D01*
X31750379Y-53080826D01*
X31752249Y-53079150D01*
X32609163Y-52327387D01*
X32610204Y-52326485D01*
X34337617Y-50847754D01*
X34341209Y-50844795D01*
X34345978Y-50841014D01*
X35387536Y-50015251D01*
X35395643Y-50010822D01*
X35441557Y-49972423D01*
X35488429Y-49935263D01*
X35488433Y-49935257D01*
X35492813Y-49931025D01*
X35492837Y-49931050D01*
X35502517Y-49921441D01*
X36486482Y-49098546D01*
X36494016Y-49094185D01*
X36539362Y-49054322D01*
X36585657Y-49015606D01*
X36585658Y-49015604D01*
X36585660Y-49015603D01*
X36589920Y-49011263D01*
X36589987Y-49011329D01*
X36599121Y-49001788D01*
X37563545Y-48153996D01*
X37570533Y-48149732D01*
X37602974Y-48119852D01*
X47462979Y-48119852D01*
X47462979Y-48382041D01*
X47497199Y-48641956D01*
X47497201Y-48641967D01*
X47565054Y-48895202D01*
X47665383Y-49137418D01*
X47665388Y-49137429D01*
X47796467Y-49364463D01*
X47796473Y-49364471D01*
X47883059Y-49477312D01*
X48589590Y-48770780D01*
X48674577Y-48897972D01*
X48815954Y-49039349D01*
X48943143Y-49124334D01*
X48236612Y-49830864D01*
X48236612Y-49830865D01*
X48349454Y-49917452D01*
X48349462Y-49917458D01*
X48576496Y-50048537D01*
X48576507Y-50048542D01*
X48818723Y-50148871D01*
X49071958Y-50216724D01*
X49071969Y-50216726D01*
X49331884Y-50250946D01*
X49331899Y-50250947D01*
X49594059Y-50250947D01*
X49594073Y-50250946D01*
X49853988Y-50216726D01*
X49853999Y-50216724D01*
X50107234Y-50148871D01*
X50349450Y-50048542D01*
X50349461Y-50048537D01*
X50576495Y-49917458D01*
X50576513Y-49917446D01*
X50689344Y-49830866D01*
X50689344Y-49830864D01*
X49982813Y-49124334D01*
X50110004Y-49039349D01*
X50251381Y-48897972D01*
X50336366Y-48770782D01*
X51042896Y-49477312D01*
X51042898Y-49477312D01*
X51129478Y-49364481D01*
X51129490Y-49364463D01*
X51260569Y-49137429D01*
X51260574Y-49137418D01*
X51360903Y-48895202D01*
X51428756Y-48641967D01*
X51428758Y-48641956D01*
X51462978Y-48382041D01*
X51462979Y-48382027D01*
X51462979Y-48119866D01*
X51462978Y-48119852D01*
X51428758Y-47859937D01*
X51428756Y-47859926D01*
X51360903Y-47606691D01*
X51260574Y-47364475D01*
X51260569Y-47364464D01*
X51129490Y-47137430D01*
X51129484Y-47137422D01*
X51042897Y-47024580D01*
X51042896Y-47024580D01*
X50336365Y-47731111D01*
X50251381Y-47603922D01*
X50110004Y-47462545D01*
X49982812Y-47377558D01*
X50689344Y-46671027D01*
X50576503Y-46584441D01*
X50576495Y-46584435D01*
X50349461Y-46453356D01*
X50349450Y-46453351D01*
X50107234Y-46353022D01*
X49853999Y-46285169D01*
X49853988Y-46285167D01*
X49594073Y-46250947D01*
X49331884Y-46250947D01*
X49071969Y-46285167D01*
X49071958Y-46285169D01*
X48818723Y-46353022D01*
X48576507Y-46453351D01*
X48576496Y-46453356D01*
X48349450Y-46584443D01*
X48236612Y-46671026D01*
X48236612Y-46671027D01*
X48943144Y-47377559D01*
X48815954Y-47462545D01*
X48674577Y-47603922D01*
X48589591Y-47731112D01*
X47883059Y-47024580D01*
X47883058Y-47024580D01*
X47796475Y-47137418D01*
X47665388Y-47364464D01*
X47665383Y-47364475D01*
X47565054Y-47606691D01*
X47497201Y-47859926D01*
X47497199Y-47859937D01*
X47462979Y-48119852D01*
X37602974Y-48119852D01*
X37615306Y-48108494D01*
X37661031Y-48068300D01*
X37661040Y-48068287D01*
X37665193Y-48063845D01*
X37665305Y-48063949D01*
X37673925Y-48054504D01*
X38611156Y-47191301D01*
X38620960Y-47183741D01*
X38620830Y-47183576D01*
X38625607Y-47179806D01*
X38625616Y-47179801D01*
X38662508Y-47144307D01*
X38668892Y-47138167D01*
X38668892Y-47138166D01*
X38669872Y-47137224D01*
X38714988Y-47095672D01*
X38719513Y-47089466D01*
X39653709Y-46190723D01*
X39659691Y-46186718D01*
X39703385Y-46142932D01*
X39747961Y-46100049D01*
X39747967Y-46100040D01*
X39751919Y-46095412D01*
X39752122Y-46095585D01*
X39759800Y-46086400D01*
X40667667Y-45176650D01*
X40673183Y-45172803D01*
X40716339Y-45127877D01*
X40760383Y-45083743D01*
X40760384Y-45083740D01*
X40760387Y-45083738D01*
X40764246Y-45079026D01*
X40764496Y-45079231D01*
X40771754Y-45070190D01*
X41661431Y-44144053D01*
X41666512Y-44140374D01*
X41709201Y-44094326D01*
X41752681Y-44049065D01*
X41752684Y-44049059D01*
X41752688Y-44049056D01*
X41756454Y-44044275D01*
X41756752Y-44044509D01*
X41763606Y-44035640D01*
X42643281Y-43086767D01*
X42656840Y-43075890D01*
X42690110Y-43036255D01*
X42725279Y-42998320D01*
X42729593Y-42991302D01*
X42740252Y-42976520D01*
X42745556Y-42970203D01*
X42770456Y-42924836D01*
X42797546Y-42880772D01*
X42803584Y-42864477D01*
X42811948Y-42849239D01*
X42826607Y-42802774D01*
X42828560Y-42797076D01*
X42845493Y-42751383D01*
X42846794Y-42743242D01*
X42850987Y-42725502D01*
X42852423Y-42720951D01*
X42853466Y-42717646D01*
X42859109Y-42666206D01*
X42867275Y-42615127D01*
X42866617Y-42597765D01*
X42868514Y-42580483D01*
X42864012Y-42528926D01*
X42862057Y-42477239D01*
X42858024Y-42460336D01*
X42857845Y-42458287D01*
X42857230Y-42451235D01*
X42857229Y-42451229D01*
X42856513Y-42443019D01*
X42849355Y-42418446D01*
X42842893Y-42396258D01*
X42842892Y-42396256D01*
X42842277Y-42394146D01*
X42842041Y-42393334D01*
X42830039Y-42343019D01*
X42822787Y-42327230D01*
X42821603Y-42323166D01*
X42820232Y-42318457D01*
X42820232Y-42318454D01*
X42820230Y-42318449D01*
X42817927Y-42310540D01*
X42817925Y-42310537D01*
X42817859Y-42310411D01*
X42807759Y-42290999D01*
X42795442Y-42267326D01*
X42795442Y-42267327D01*
X42794029Y-42264611D01*
X42772450Y-42217624D01*
X42762259Y-42203555D01*
X42635453Y-41959852D01*
X42498573Y-41696786D01*
X42497735Y-41695147D01*
X42389312Y-41478995D01*
X42221668Y-41144782D01*
X42220659Y-41142720D01*
X41957040Y-40590444D01*
X41955816Y-40587799D01*
X41707434Y-40033060D01*
X41706008Y-40029743D01*
X41700309Y-40015949D01*
X41606021Y-39787715D01*
X41529207Y-39601778D01*
X41510948Y-39557581D01*
X42843455Y-39557581D01*
X42843455Y-41557599D01*
X42843456Y-41557616D01*
X42853955Y-41660394D01*
X42853956Y-41660397D01*
X42909140Y-41826929D01*
X42909142Y-41826934D01*
X42938297Y-41874202D01*
X43001243Y-41976254D01*
X43125299Y-42100310D01*
X43274621Y-42192412D01*
X43441158Y-42247597D01*
X43543946Y-42258098D01*
X45543963Y-42258097D01*
X45646752Y-42247597D01*
X45813289Y-42192412D01*
X45962611Y-42100310D01*
X46086667Y-41976254D01*
X46178769Y-41826932D01*
X46233954Y-41660395D01*
X46244455Y-41557607D01*
X46244454Y-39557590D01*
X46239675Y-39510811D01*
X46233954Y-39454801D01*
X46233953Y-39454798D01*
X46225681Y-39429836D01*
X46178769Y-39288264D01*
X46086667Y-39138942D01*
X45962611Y-39014886D01*
X45827501Y-38931550D01*
X45813291Y-38922785D01*
X45813286Y-38922783D01*
X45754312Y-38903241D01*
X45646752Y-38867599D01*
X45646750Y-38867598D01*
X45543965Y-38857098D01*
X43543953Y-38857098D01*
X43543936Y-38857099D01*
X43441158Y-38867598D01*
X43441155Y-38867599D01*
X43274623Y-38922783D01*
X43274618Y-38922785D01*
X43125297Y-39014887D01*
X43001244Y-39138940D01*
X42909142Y-39288261D01*
X42909140Y-39288266D01*
X42884843Y-39361589D01*
X42853956Y-39454801D01*
X42853956Y-39454802D01*
X42853955Y-39454802D01*
X42843455Y-39557581D01*
X41510948Y-39557581D01*
X41475677Y-39472204D01*
X41474129Y-39468269D01*
X41262953Y-38903241D01*
X41261758Y-38899899D01*
X41244048Y-38848034D01*
X41166679Y-38621446D01*
X41165877Y-38619014D01*
X41165754Y-38618629D01*
X41075716Y-38335928D01*
X41074950Y-38333428D01*
X40991243Y-38049212D01*
X40990478Y-38046500D01*
X40989834Y-38044112D01*
X40914172Y-37763444D01*
X40901444Y-37708462D01*
X40896242Y-37696933D01*
X40892950Y-37684720D01*
X40868881Y-37636102D01*
X40866995Y-37632112D01*
X40866736Y-37631539D01*
X40848590Y-37591319D01*
X40826744Y-37542899D01*
X40824251Y-37536969D01*
X40791110Y-37452016D01*
X40788964Y-37446072D01*
X40760046Y-37359095D01*
X40758236Y-37353157D01*
X40733569Y-37264344D01*
X40732093Y-37258478D01*
X40711684Y-37167944D01*
X40710517Y-37162110D01*
X40709255Y-37154904D01*
X40694405Y-37070116D01*
X40693533Y-37064329D01*
X40681741Y-36971099D01*
X40681148Y-36965325D01*
X40673691Y-36871120D01*
X40673371Y-36865401D01*
X40672880Y-36850425D01*
X40670254Y-36770416D01*
X40670198Y-36764765D01*
X40670774Y-36719868D01*
X40671422Y-36669304D01*
X40671621Y-36663717D01*
X40673390Y-36633256D01*
X40677177Y-36568042D01*
X40677622Y-36562522D01*
X40680720Y-36532502D01*
X40687489Y-36466894D01*
X40688170Y-36461480D01*
X40702314Y-36366204D01*
X40703234Y-36360832D01*
X40721594Y-36266270D01*
X40722761Y-36260903D01*
X40732965Y-36218497D01*
X40745287Y-36167288D01*
X40746683Y-36162009D01*
X40773294Y-36069664D01*
X40774928Y-36064434D01*
X40805562Y-35973573D01*
X40807441Y-35968390D01*
X40807910Y-35967183D01*
X40841351Y-35880981D01*
X40841963Y-35879403D01*
X40844090Y-35874265D01*
X40882416Y-35787358D01*
X40884810Y-35782253D01*
X40926806Y-35697729D01*
X40929481Y-35692644D01*
X40954134Y-35648307D01*
X40975040Y-35610709D01*
X40977968Y-35605723D01*
X41026972Y-35526603D01*
X41030201Y-35521657D01*
X41082538Y-35445537D01*
X41086025Y-35440721D01*
X41141556Y-35367818D01*
X41145342Y-35363094D01*
X41203956Y-35293574D01*
X41208046Y-35288963D01*
X41269655Y-35222954D01*
X41274051Y-35218481D01*
X41338526Y-35156155D01*
X41343264Y-35151809D01*
X41410534Y-35093274D01*
X41415606Y-35089093D01*
X41485692Y-35034389D01*
X41491048Y-35030437D01*
X41563926Y-34979660D01*
X41569581Y-34975947D01*
X41645317Y-34929150D01*
X41651243Y-34925714D01*
X41749140Y-34872529D01*
X41825765Y-34831248D01*
X41832178Y-34828030D01*
X41888179Y-34801943D01*
X41894783Y-34799098D01*
X41939795Y-34781239D01*
X41950414Y-34777026D01*
X41957149Y-34774576D01*
X42012925Y-34756101D01*
X42019674Y-34754077D01*
X42076027Y-34738915D01*
X42082705Y-34737317D01*
X42140100Y-34725262D01*
X42146633Y-34724073D01*
X42205473Y-34715006D01*
X42211841Y-34714195D01*
X42272374Y-34708080D01*
X42278497Y-34707615D01*
X42341123Y-34704437D01*
X42346959Y-34704280D01*
X42411693Y-34704079D01*
X42417214Y-34704186D01*
X42484258Y-34706999D01*
X42489490Y-34707330D01*
X42551192Y-34712550D01*
X42558363Y-34713369D01*
X42712484Y-34735534D01*
X42720896Y-34737042D01*
X42874882Y-34770192D01*
X42882016Y-34771951D01*
X42891489Y-34774586D01*
X43043367Y-34816834D01*
X43049281Y-34818638D01*
X43216874Y-34874418D01*
X43221662Y-34876123D01*
X43316756Y-34912210D01*
X43394113Y-34941566D01*
X43397967Y-34943103D01*
X43570539Y-35015285D01*
X43574555Y-35017048D01*
X43940433Y-35185542D01*
X43943057Y-35186788D01*
X44257468Y-35340742D01*
X44269660Y-35349256D01*
X44319325Y-35371031D01*
X44368037Y-35394884D01*
X44368039Y-35394884D01*
X44368040Y-35394885D01*
X44373147Y-35396238D01*
X44391186Y-35402539D01*
X44396034Y-35404665D01*
X44449003Y-35416335D01*
X44501422Y-35430223D01*
X44516261Y-35431152D01*
X44519183Y-35431796D01*
X44525618Y-35433214D01*
X44525619Y-35433215D01*
X44525622Y-35433215D01*
X44530788Y-35434354D01*
X44582400Y-35435411D01*
X44587599Y-35435627D01*
X44639138Y-35438861D01*
X44653879Y-35436878D01*
X44668745Y-35437183D01*
X44722132Y-35427697D01*
X44775892Y-35420466D01*
X44789962Y-35415645D01*
X44804604Y-35413044D01*
X44855131Y-35393318D01*
X44906431Y-35375744D01*
X44910996Y-35373090D01*
X44928205Y-35364791D01*
X44933142Y-35362865D01*
X44978855Y-35333658D01*
X45025736Y-35306416D01*
X45036886Y-35296581D01*
X45049423Y-35288572D01*
X45088560Y-35251007D01*
X45129224Y-35215144D01*
X45138242Y-35203322D01*
X45148974Y-35193022D01*
X45180028Y-35148547D01*
X45212917Y-35105436D01*
X45219456Y-35092081D01*
X45227971Y-35079887D01*
X45249751Y-35030211D01*
X45273599Y-34981509D01*
X45277407Y-34967135D01*
X45283380Y-34953513D01*
X45295050Y-34900540D01*
X45308938Y-34848125D01*
X45309868Y-34833284D01*
X45322074Y-34777882D01*
X45323727Y-34771257D01*
X45347522Y-34686075D01*
X45349489Y-34679707D01*
X45378211Y-34594904D01*
X45380463Y-34588792D01*
X45414073Y-34504506D01*
X45416589Y-34498643D01*
X45454969Y-34415189D01*
X45457710Y-34409603D01*
X45500793Y-34327151D01*
X45503722Y-34321868D01*
X45551368Y-34240723D01*
X45554496Y-34235679D01*
X45606536Y-34156145D01*
X45609840Y-34151349D01*
X45666075Y-34073747D01*
X45669514Y-34069227D01*
X45729770Y-33993803D01*
X45733433Y-33989432D01*
X45797414Y-33916569D01*
X45801241Y-33912409D01*
X45841128Y-33871002D01*
X45868701Y-33842378D01*
X45872742Y-33838371D01*
X45943428Y-33771429D01*
X45947621Y-33767635D01*
X46021313Y-33703992D01*
X46025644Y-33700421D01*
X46101995Y-33640375D01*
X46106566Y-33636949D01*
X46122249Y-33625747D01*
X46185238Y-33580755D01*
X46189946Y-33577554D01*
X46270740Y-33525348D01*
X46275649Y-33522339D01*
X46358071Y-33474429D01*
X46363248Y-33471582D01*
X46447092Y-33428068D01*
X46452443Y-33425454D01*
X46537424Y-33386474D01*
X46542943Y-33384107D01*
X46628730Y-33349799D01*
X46634529Y-33347650D01*
X46720687Y-33318169D01*
X46726821Y-33316246D01*
X46813128Y-33291636D01*
X46819516Y-33289998D01*
X46905801Y-33270289D01*
X46912411Y-33268967D01*
X46998464Y-33254197D01*
X47005261Y-33253225D01*
X47090886Y-33243421D01*
X47097935Y-33242818D01*
X47182992Y-33237995D01*
X47190228Y-33237797D01*
X47274665Y-33237976D01*
X47282099Y-33238214D01*
X47365926Y-33243432D01*
X47373479Y-33244135D01*
X47456699Y-33254455D01*
X47464322Y-33255641D01*
X47547130Y-33271192D01*
X47554762Y-33272877D01*
X47594063Y-33282858D01*
X47614108Y-33289822D01*
X47656130Y-33308590D01*
X47682328Y-33320291D01*
X47696580Y-33326656D01*
X47696581Y-33326657D01*
X47706421Y-33331052D01*
X47713159Y-33335597D01*
X47769355Y-33359161D01*
X47824989Y-33384009D01*
X47824992Y-33384009D01*
X47830765Y-33385935D01*
X47830714Y-33386086D01*
X47842839Y-33389974D01*
X47935557Y-33428852D01*
X47942547Y-33433331D01*
X47999147Y-33455516D01*
X48055160Y-33479003D01*
X48055163Y-33479003D01*
X48055164Y-33479004D01*
X48060986Y-33480798D01*
X48060944Y-33480932D01*
X48073289Y-33484576D01*
X48167283Y-33521418D01*
X48174530Y-33525821D01*
X48231456Y-33546571D01*
X48287860Y-33568680D01*
X48287861Y-33568680D01*
X48293718Y-33570335D01*
X48293685Y-33570450D01*
X48306268Y-33573842D01*
X48401494Y-33608554D01*
X48409007Y-33612870D01*
X48466239Y-33632155D01*
X48522993Y-33652844D01*
X48522995Y-33652844D01*
X48528894Y-33654359D01*
X48528869Y-33654454D01*
X48541673Y-33657575D01*
X48638091Y-33690066D01*
X48645883Y-33694285D01*
X48703382Y-33712067D01*
X48760453Y-33731299D01*
X48760462Y-33731300D01*
X48766393Y-33732670D01*
X48766375Y-33732744D01*
X48779417Y-33735582D01*
X48876979Y-33765755D01*
X48885060Y-33769866D01*
X48942813Y-33786115D01*
X48983183Y-33798600D01*
X49000142Y-33803845D01*
X49006104Y-33805064D01*
X49006093Y-33805116D01*
X49019375Y-33807655D01*
X49118054Y-33835420D01*
X49126430Y-33839408D01*
X49184407Y-33854089D01*
X49241957Y-33870281D01*
X49241961Y-33870281D01*
X49247960Y-33871349D01*
X49247954Y-33871379D01*
X49261449Y-33873597D01*
X49361216Y-33898860D01*
X49369894Y-33902710D01*
X49428031Y-33915779D01*
X49485780Y-33930403D01*
X49485783Y-33930403D01*
X49485787Y-33930404D01*
X49491806Y-33931313D01*
X49491804Y-33931319D01*
X49505532Y-33933203D01*
X49596127Y-33953570D01*
X49596128Y-33953570D01*
X49606365Y-33955871D01*
X49615350Y-33959564D01*
X49673592Y-33970984D01*
X49731511Y-33984005D01*
X49731522Y-33984005D01*
X49736320Y-33984599D01*
X49751524Y-33986265D01*
X49778667Y-33991587D01*
X49853381Y-34006237D01*
X49862676Y-34009756D01*
X49921011Y-34019499D01*
X49944505Y-34024105D01*
X49979034Y-34030877D01*
X49982171Y-34031177D01*
X49999287Y-34032571D01*
X50102161Y-34049754D01*
X50111770Y-34053078D01*
X50170125Y-34061105D01*
X50228232Y-34070810D01*
X50228239Y-34070809D01*
X50229658Y-34070905D01*
X50248709Y-34071914D01*
X50352585Y-34086203D01*
X50362506Y-34089312D01*
X50420844Y-34095593D01*
X50478984Y-34103591D01*
X50478997Y-34103590D01*
X50499658Y-34104079D01*
X50604524Y-34115370D01*
X50614758Y-34118242D01*
X50673062Y-34122750D01*
X50731159Y-34129006D01*
X50731439Y-34128980D01*
X50752031Y-34128857D01*
X50857869Y-34137041D01*
X50868406Y-34139651D01*
X50926584Y-34142354D01*
X50984625Y-34146843D01*
X50985172Y-34146777D01*
X51005669Y-34146030D01*
X51112473Y-34150994D01*
X51123300Y-34153318D01*
X51181302Y-34154192D01*
X51239249Y-34156886D01*
X51240052Y-34156764D01*
X51260442Y-34155386D01*
X51379902Y-34157188D01*
X51402651Y-34160539D01*
X51448734Y-34158226D01*
X51451570Y-34158268D01*
X51494877Y-34158923D01*
X51517496Y-34154777D01*
X51540464Y-34153625D01*
X51585220Y-34142364D01*
X51630602Y-34134047D01*
X51644412Y-34128568D01*
X51659867Y-34123583D01*
X51674280Y-34119958D01*
X51715979Y-34100182D01*
X51758867Y-34083171D01*
X51778178Y-34070684D01*
X51798956Y-34060831D01*
X51832744Y-34035716D01*
X51839373Y-34031117D01*
X51874741Y-34008250D01*
X51891250Y-33992231D01*
X51909703Y-33978516D01*
X51940653Y-33944296D01*
X51973774Y-33912160D01*
X51986836Y-33893234D01*
X52002263Y-33876179D01*
X52025940Y-33836581D01*
X52052157Y-33798599D01*
X52061280Y-33777480D01*
X52073078Y-33757750D01*
X52088572Y-33714302D01*
X52106879Y-33671927D01*
X52111706Y-33649435D01*
X52119429Y-33627782D01*
X52126150Y-33582141D01*
X52135837Y-33537013D01*
X52136060Y-33522153D01*
X52137369Y-33505958D01*
X52137929Y-33502156D01*
X52154204Y-33391644D01*
X52154607Y-33389104D01*
X52181525Y-33230361D01*
X52181966Y-33227916D01*
X52212312Y-33069390D01*
X52212784Y-33067055D01*
X52245653Y-32912646D01*
X52246464Y-32909098D01*
X52324544Y-32589289D01*
X52325724Y-32584824D01*
X52415195Y-32270355D01*
X52416470Y-32266161D01*
X52438115Y-32199201D01*
X52517630Y-31953216D01*
X52518960Y-31949329D01*
X52631089Y-31638202D01*
X52632413Y-31634701D01*
X52754785Y-31325662D01*
X52756109Y-31322453D01*
X52880439Y-31033320D01*
X52898815Y-30999034D01*
X52907632Y-30970081D01*
X52919585Y-30942286D01*
X52926575Y-30909448D01*
X52929234Y-30899152D01*
X52931056Y-30893171D01*
X52979121Y-30735345D01*
X52981991Y-30727003D01*
X53046545Y-30559071D01*
X53049908Y-30551159D01*
X53127049Y-30385960D01*
X53130938Y-30378332D01*
X53219859Y-30217908D01*
X53224276Y-30210554D01*
X53324079Y-30056749D01*
X53329050Y-30049648D01*
X53438662Y-29904279D01*
X53444301Y-29897339D01*
X53562546Y-29762072D01*
X53568907Y-29755322D01*
X53629159Y-29695999D01*
X53694553Y-29631613D01*
X53701692Y-29625112D01*
X53840160Y-29508592D01*
X53846043Y-29503941D01*
X53907330Y-29458450D01*
X53911505Y-29455486D01*
X53970775Y-29415244D01*
X53980452Y-29408674D01*
X53984926Y-29405773D01*
X54054858Y-29362583D01*
X54059497Y-29359858D01*
X54130239Y-29320391D01*
X54135144Y-29317799D01*
X54206641Y-29282081D01*
X54211815Y-29279647D01*
X54283885Y-29247766D01*
X54289340Y-29245508D01*
X54361993Y-29217456D01*
X54367697Y-29215413D01*
X54440965Y-29191193D01*
X54446817Y-29189421D01*
X54520696Y-29169058D01*
X54526817Y-29167539D01*
X54601263Y-29151081D01*
X54607601Y-29149852D01*
X54682807Y-29137306D01*
X54689294Y-29136400D01*
X54765392Y-29127822D01*
X54771988Y-29127258D01*
X54849154Y-29122735D01*
X54855847Y-29122525D01*
X54881655Y-29122411D01*
X54884765Y-29122548D01*
X54890250Y-29122512D01*
X54957312Y-29122078D01*
X54957570Y-29122152D01*
X54957570Y-29122077D01*
X55025631Y-29121778D01*
X55025642Y-29121775D01*
X55026263Y-29121712D01*
X55026687Y-29121668D01*
X55026836Y-29121653D01*
X55027062Y-29121629D01*
X55027068Y-29121629D01*
X55094096Y-29107845D01*
X55160846Y-29094263D01*
X55161486Y-29093993D01*
X55162166Y-29093854D01*
X55162217Y-29093838D01*
X55162228Y-29093836D01*
X55225392Y-29067193D01*
X55288095Y-29040897D01*
X55288670Y-29040507D01*
X55289308Y-29040239D01*
X55289357Y-29040213D01*
X55289355Y-29040213D01*
X55289367Y-29040209D01*
X55346121Y-29001754D01*
X55402488Y-28963732D01*
X55402969Y-28963244D01*
X55403533Y-28962863D01*
X55403540Y-28962858D01*
X55403587Y-28962817D01*
X55403601Y-28962809D01*
X55451819Y-28913963D01*
X55499629Y-28865731D01*
X55500002Y-28865164D01*
X55500481Y-28864680D01*
X55500528Y-28864621D01*
X55500540Y-28864610D01*
X55538187Y-28807471D01*
X55575785Y-28750664D01*
X55575786Y-28750660D01*
X55578170Y-28747059D01*
X55579747Y-28744394D01*
X55651958Y-28634796D01*
X55653309Y-28632789D01*
X55768211Y-28465844D01*
X55769819Y-28463567D01*
X55824920Y-28387346D01*
X55826373Y-28385376D01*
X55883391Y-28309695D01*
X55885098Y-28307483D01*
X55942479Y-28234869D01*
X55944457Y-28232434D01*
X56001991Y-28163459D01*
X56004371Y-28160690D01*
X56062054Y-28095614D01*
X56064819Y-28092598D01*
X56122498Y-28031780D01*
X56125680Y-28028550D01*
X56183190Y-27972296D01*
X56186863Y-27968849D01*
X56244066Y-27917359D01*
X56248271Y-27913743D01*
X56305049Y-27867135D01*
X56309809Y-27863421D01*
X56365970Y-27821805D01*
X56371386Y-27818013D01*
X56426981Y-27781274D01*
X56433009Y-27777536D01*
X56445417Y-27770329D01*
X56455039Y-27765863D01*
X56454834Y-27765431D01*
X56460332Y-27762816D01*
X56460331Y-27762816D01*
X56460338Y-27762814D01*
X56514004Y-27730503D01*
X56515464Y-27729640D01*
X56569644Y-27698168D01*
X56569652Y-27698160D01*
X56574587Y-27694605D01*
X56574862Y-27694987D01*
X56583424Y-27688707D01*
X56606357Y-27674899D01*
X56612729Y-27671316D01*
X56679397Y-27636396D01*
X56685955Y-27633205D01*
X56753449Y-27602794D01*
X56760149Y-27600010D01*
X56828642Y-27573864D01*
X56835399Y-27571506D01*
X56905065Y-27549442D01*
X56911835Y-27547508D01*
X56982745Y-27529426D01*
X56989474Y-27527909D01*
X57061801Y-27513717D01*
X57068414Y-27512607D01*
X57142084Y-27502301D01*
X57148640Y-27501563D01*
X57223663Y-27495129D01*
X57230083Y-27494745D01*
X57306511Y-27492191D01*
X57312742Y-27492142D01*
X57390380Y-27493489D01*
G37*
%TD.AperFunction*%
%TD*%
M02*
