%TF.GenerationSoftware,KiCad,Pcbnew,9.0.3*%
%TF.CreationDate,2026-01-09T12:57:29+01:00*%
%TF.ProjectId,Einhhorn,45696e68-686f-4726-9e2e-6b696361645f,1.0*%
%TF.SameCoordinates,Original*%
%TF.FileFunction,Soldermask,Top*%
%TF.FilePolarity,Negative*%
%FSLAX46Y46*%
G04 Gerber Fmt 4.6, Leading zero omitted, Abs format (unit mm)*
G04 Created by KiCad (PCBNEW 9.0.3) date 2026-01-09 12:57:29*
%MOMM*%
%LPD*%
G01*
G04 APERTURE LIST*
G04 Aperture macros list*
%AMRoundRect*
0 Rectangle with rounded corners*
0 $1 Rounding radius*
0 $2 $3 $4 $5 $6 $7 $8 $9 X,Y pos of 4 corners*
0 Add a 4 corners polygon primitive as box body*
4,1,4,$2,$3,$4,$5,$6,$7,$8,$9,$2,$3,0*
0 Add four circle primitives for the rounded corners*
1,1,$1+$1,$2,$3*
1,1,$1+$1,$4,$5*
1,1,$1+$1,$6,$7*
1,1,$1+$1,$8,$9*
0 Add four rect primitives between the rounded corners*
20,1,$1+$1,$2,$3,$4,$5,0*
20,1,$1+$1,$4,$5,$6,$7,0*
20,1,$1+$1,$6,$7,$8,$9,0*
20,1,$1+$1,$8,$9,$2,$3,0*%
G04 Aperture macros list end*
%ADD10R,1.800000X1.800000*%
%ADD11C,1.800000*%
%ADD12C,1.600000*%
%ADD13RoundRect,0.250000X0.550000X0.550000X-0.550000X0.550000X-0.550000X-0.550000X0.550000X-0.550000X0*%
%ADD14C,2.400000*%
%ADD15RoundRect,0.250000X-0.950000X-0.950000X0.950000X-0.950000X0.950000X0.950000X-0.950000X0.950000X0*%
%ADD16C,3.000000*%
%ADD17RoundRect,0.250000X0.950000X-0.950000X0.950000X0.950000X-0.950000X0.950000X-0.950000X-0.950000X0*%
%ADD18C,1.500000*%
G04 APERTURE END LIST*
D10*
%TO.C,D4*%
X104006536Y-36800304D03*
D11*
X104006536Y-34260304D03*
%TD*%
D10*
%TO.C,D2*%
X103847953Y-47026218D03*
D11*
X103847953Y-49566218D03*
%TD*%
D10*
%TO.C,D7*%
X116058828Y-33866522D03*
D11*
X118598828Y-33866522D03*
%TD*%
D10*
%TO.C,D8*%
X122243556Y-56940317D03*
D11*
X124783556Y-56940317D03*
%TD*%
D10*
%TO.C,D3*%
X111615834Y-52103543D03*
D11*
X114155834Y-52103543D03*
%TD*%
D10*
%TO.C,D1*%
X97000000Y-57416066D03*
D11*
X97000000Y-54876066D03*
%TD*%
D10*
%TO.C,D6*%
X111618510Y-42192119D03*
D11*
X114158510Y-42192119D03*
%TD*%
D10*
%TO.C,D5*%
X125653086Y-43540072D03*
D11*
X128193086Y-43540072D03*
%TD*%
D12*
%TO.C,R2*%
X92600000Y-51060000D03*
X92600000Y-40900000D03*
%TD*%
%TO.C,R6*%
X118185396Y-48989198D03*
X118185396Y-38829198D03*
%TD*%
D13*
%TO.C,U1*%
X72613902Y-64672569D03*
D12*
X72613902Y-67212569D03*
X72613902Y-69752569D03*
X72613902Y-72292569D03*
X64993902Y-72292569D03*
X64993902Y-69752569D03*
X64993902Y-67212569D03*
X64993902Y-64672569D03*
%TD*%
%TO.C,R1*%
X89600000Y-39840000D03*
X89600000Y-50000000D03*
%TD*%
D14*
%TO.C,C2*%
X33786859Y-64556747D03*
D15*
X51786859Y-64556747D03*
%TD*%
D16*
%TO.C,BT1*%
X49462979Y-48250947D03*
X74062979Y-48250947D03*
%TD*%
D12*
%TO.C,R3*%
X108335846Y-53400000D03*
X108335846Y-43240000D03*
%TD*%
%TO.C,R8*%
X117778237Y-51832986D03*
X127938237Y-51832986D03*
%TD*%
D14*
%TO.C,C1*%
X44543955Y-58557598D03*
D17*
X44543955Y-40557598D03*
%TD*%
D12*
%TO.C,R9*%
X72333315Y-77777757D03*
X62173315Y-77777757D03*
%TD*%
%TO.C,R5*%
X132061390Y-51277946D03*
X132061390Y-41117946D03*
%TD*%
%TO.C,R4*%
X112379707Y-30298410D03*
X102219707Y-30298410D03*
%TD*%
%TO.C,R10*%
X60064229Y-63640918D03*
X60064229Y-73800918D03*
%TD*%
%TO.C,R7*%
X121674217Y-49057787D03*
X121674217Y-38897787D03*
%TD*%
D18*
%TO.C,SW1*%
X99350132Y-65438423D03*
X99350132Y-67938423D03*
X99350132Y-70438423D03*
%TD*%
D11*
%TO.C,R11*%
X51442781Y-77590185D03*
X53942781Y-82590185D03*
X56442781Y-77590185D03*
%TD*%
D13*
%TO.C,U2*%
X86056506Y-54759804D03*
D12*
X86056506Y-57299804D03*
X86056506Y-59839804D03*
X86056506Y-62379804D03*
X86056506Y-64919804D03*
X86056506Y-67459804D03*
X86056506Y-69999804D03*
X86056506Y-72539804D03*
X78436506Y-72539804D03*
X78436506Y-69999804D03*
X78436506Y-67459804D03*
X78436506Y-64919804D03*
X78436506Y-62379804D03*
X78436506Y-59839804D03*
X78436506Y-57299804D03*
X78436506Y-54759804D03*
%TD*%
M02*
